<svg width="330" height="67" viewBox="0 0 330 67" fill="none" xmlns="http://www.w3.org/2000/svg">
<path fill-rule="evenodd" clip-rule="evenodd" d="M31.4869 27.3702H47.6545L39.5 13.8277L31.4869 27.3702ZM22.4839 27.3702H28.0931L37.8031 11.0241L35.0692 6.46241L22.4839 27.3702ZM14.4236 56.1659L22.3896 42.9085L30.3556 56.1659H14.4236ZM34.9749 63.8163H9.8043L12.7267 58.9695H32.0996L34.9749 63.8163ZM65.0006 56.4035H48.7858L56.9403 42.861L65.0006 56.4035ZM74.0036 56.4035H68.3944L58.6844 40.0574L61.4183 35.4957L74.0036 56.4035ZM31.4397 37.6816H47.6545L39.5 51.2241L31.4397 37.6816ZM0 59.1596L35.0692 0L54.0179 32.122L41.4797 53.9326L42.8938 56.3085H45.4391L59.5799 32.312L40.4427 0.0950412H44.1665L79 59.3972H40.7727L28.0931 37.7766H25.5477L24.3222 39.8674L38.463 63.8638H76.2661L74.5221 67H4.66646L23.8037 34.6404H49.21L50.6712 32.2645L49.3514 30.2213H20.9284L2.02686 62.2957L0 59.1596Z" fill="#E2000F"/>
<path d="M116 28.8008L114.1 25.2008H99.5004L97.6004 28.8008H89.9004L101.6 7.30078H112.1L123.7 28.8008H116ZM111.7 20.4008L107.4 12.3008H106.1L101.8 20.4008H111.7Z" fill="#1A1A18"/>
<path d="M124.999 7.30078H131.699V17.2008C131.699 19.5008 131.799 20.9008 131.899 21.5008C132.099 22.3008 132.599 22.9008 133.599 23.2008C134.499 23.5008 136.499 23.6008 139.299 23.6008C141.599 23.6008 143.299 23.5008 144.199 23.4008C145.099 23.3008 145.699 23.0008 146.099 22.6008C146.299 22.3008 146.499 22.0008 146.599 21.6008C146.699 21.2008 146.799 20.5008 146.799 19.6008C146.899 18.6008 146.899 17.8008 146.899 17.2008V7.30078H153.599V17.2008C153.499 20.6008 153.399 22.9008 153.299 23.9008C152.999 25.7008 152.099 27.0008 150.599 27.9008C149.699 28.4008 148.499 28.7008 146.999 28.9008C145.399 29.1008 142.899 29.2008 139.299 29.2008C136.599 29.2008 134.599 29.2008 133.099 29.1008C131.699 29.0008 130.399 28.8008 129.299 28.6008C126.899 28.1008 125.499 26.7008 125.099 24.4008C124.899 23.5008 124.899 22.8008 124.799 22.1008C124.799 21.4008 124.699 19.8008 124.699 17.3008V7.30078H124.999Z" fill="#1A1A18"/>
<path d="M156.199 7.30078H182.999V12.8008H173.199V28.8008H166.099V12.8008H156.199V7.30078Z" fill="#1A1A18"/>
<path d="M200.8 7C205.6 7 208.9 7.09999 210.7 7.29999C213.3 7.59999 214.9 8.79999 215.5 10.9C215.9 12.3 216.1 14.7 216.1 18C216.1 21.4 215.9 23.7 215.5 25.2C214.9 27.2 213.3 28.4 210.7 28.8C208.9 29 205.6 29.1 200.9 29.1C196.1 29.1 192.8 29 191 28.8C188.4 28.5 186.8 27.3 186.2 25.2C185.8 23.8 185.6 21.4 185.6 17.9C185.6 14.6 185.8 12.3 186.2 10.9C186.8 8.89999 188.4 7.69999 191 7.29999C192.7 7.09999 196 7 200.8 7ZM200.8 12.5C197.2 12.5 195.1 12.6 194.3 12.8C193.5 13 192.9 13.5 192.7 14.2C192.4 14.9 192.3 16.4 192.3 18.6C192.3 19.9 192.4 20.9 192.5 21.5C192.8 22.6 193.6 23.2 194.9 23.4C195.9 23.5 197.9 23.6 200.8 23.6C203.5 23.6 205.3 23.6 206.2 23.5C207.1 23.4 207.8 23.2 208.2 22.9C208.6 22.6 208.9 22.2 209 21.6C209.1 21 209.2 20.1 209.2 18.8C209.2 17.3 209.1 16.1 209 15.4C208.9 14.7 208.7 14.1 208.4 13.8C208 13.3 207.5 13.1 206.6 12.9C205.9 12.6 204 12.5 200.8 12.5Z" fill="#1A1A18"/>
<path d="M246.899 7.30078V9.80078H235.799V28.8008H232.799V9.80078H221.699V7.30078H246.899Z" fill="#1A1A18"/>
<path d="M249.6 7.30078H271.3V9.80078H252.6V16.4008H270.5V18.9008H252.6V26.3008H271.4V28.8008H249.7V7.30078H249.6Z" fill="#1A1A18"/>
<path d="M299.8 21.3977C299.6 25.4977 299.5 26.2977 298.4 27.2977C297.1 28.4977 295 28.7977 288.2 28.7977C279.5 28.7977 277.1 28.4977 275.7 27.0977C274.4 25.8977 274 23.4977 274 18.2977C274 12.2977 274.5 9.79766 276.1 8.59766C277.2 7.79766 278.4 7.49767 281.7 7.29767C283.1 7.19767 286 7.09766 287.8 7.09766C294.6 7.09766 297 7.49767 298.4 8.89767C299.4 9.89767 299.5 10.4977 299.6 14.2977H296.8V13.5977C296.8 11.4977 296.4 10.7977 295.2 10.2977C294.1 9.89767 291.5 9.69766 287.7 9.69766C281.9 9.69766 279.2 9.99766 278.3 10.6977C277.5 11.3977 277.1 13.3977 277.1 17.1977C277.1 18.9977 277.3 22.3977 277.4 23.4977C277.7 25.0977 278.4 25.7977 280.3 25.9977C281.8 26.1977 284.8 26.2977 287.5 26.2977C289.7 26.2977 293.5 26.0977 294.4 25.9977C296.6 25.6977 297.1 25.0977 297.1 22.3977V21.3977H299.8Z" fill="#1A1A18"/>
<path d="M306.199 7.30078V16.4008H326.599V7.30078H329.599V28.8008H326.599V18.9008H306.199V28.8008H303.199V7.30078H306.199Z" fill="#1A1A18"/>
<path d="M107.1 51.5V50.6C107.1 49.8 107.2 49.1 107.3 48.5C107.4 47.9 107.7 47.4 108 47.1C108.3 46.7 108.7 46.4 109.1 46.3C109.5 46.1 110 46 110.5 46C111 46 111.5 46.1 111.9 46.3C112.3 46.5 112.6 46.8 112.8 47.2C113.1 47.6 113.3 48.1 113.4 48.6C113.5 49.1 113.6 49.8 113.7 50.5V51.7C113.6 52.4 113.5 53 113.4 53.6C113.3 54.2 113.1 54.6 112.8 55C112.5 55.4 112.2 55.7 111.8 55.9C111.4 56.1 111 56.2 110.4 56.2C109.9 56.2 109.4 56.1 109 55.9C108.6 55.7 108.2 55.4 107.9 55C107.6 54.6 107.4 54.1 107.2 53.6C107.1 53 107.1 52.3 107.1 51.5ZM112.9 46.1H114.4V56C114.4 56.9 114.2 57.6 113.9 58.1C113.6 58.7 113.2 59.1 112.6 59.3C112.1 59.6 111.4 59.7 110.7 59.7C110.4 59.7 110.1 59.7 109.7 59.6C109.3 59.5 108.9 59.4 108.5 59.2C108.1 59 107.8 58.8 107.5 58.5L108.2 57.4C108.6 57.8 108.9 58 109.3 58.2C109.7 58.4 110.1 58.4 110.4 58.4C110.8 58.4 111.2 58.3 111.5 58.2C111.8 58 112.1 57.8 112.2 57.5C112.4 57.2 112.5 56.7 112.5 56.1V48.3L112.9 46.1ZM108.7 50.6V51.5C108.7 52 108.7 52.5 108.8 52.9C108.9 53.3 109 53.6 109.2 53.9C109.4 54.2 109.6 54.4 109.9 54.5C110.2 54.6 110.5 54.7 110.9 54.7C111.4 54.7 111.7 54.6 112 54.4C112.3 54.2 112.5 53.9 112.7 53.5C112.9 53.1 113 52.8 113.1 52.3V49.7C113 49.4 112.9 49.1 112.8 48.8C112.7 48.5 112.5 48.3 112.4 48C112.2 47.8 112 47.6 111.8 47.5C111.5 47.4 111.3 47.3 110.9 47.3C110.5 47.3 110.2 47.4 109.9 47.5C109.6 47.6 109.4 47.8 109.2 48.1C109 48.4 108.9 48.7 108.8 49.1C108.7 49.6 108.7 50.1 108.7 50.6Z" fill="#1A1A18"/>
<path d="M120.5 56.2C119.9 56.2 119.3 56.1 118.9 55.9C118.5 55.7 118 55.5 117.7 55.1C117.4 54.7 117.1 54.3 116.9 53.7C116.7 53.1 116.6 52.5 116.6 51.7V50.6C116.6 49.7 116.7 49 116.9 48.4C117.1 47.8 117.4 47.3 117.7 47C118 46.7 118.5 46.4 118.9 46.2C119.3 46 119.8 46 120.3 46C120.9 46 121.5 46.1 121.9 46.3C122.3 46.5 122.7 46.8 123 47.2C123.3 47.6 123.5 48.1 123.6 48.7C123.7 49.3 123.8 49.9 123.8 50.7V51.6H117.5V50.2H122.2V50C122.2 49.5 122.1 49 122 48.7C121.9 48.4 121.7 48 121.4 47.8C121.1 47.6 120.8 47.5 120.3 47.5C120 47.5 119.7 47.5 119.5 47.6C119.2 47.7 119 47.9 118.8 48.1C118.6 48.3 118.5 48.7 118.4 49.1C118.3 49.5 118.2 50.1 118.2 50.7V51.8C118.2 52.3 118.3 52.8 118.4 53.2C118.5 53.6 118.7 53.9 118.9 54.1C119.1 54.3 119.4 54.5 119.6 54.6C119.9 54.7 120.2 54.8 120.6 54.8C121.2 54.8 121.6 54.7 122 54.5C122.4 54.3 122.7 54 122.9 53.7L123.8 54.7C123.6 54.9 123.4 55.2 123.1 55.4C122.8 55.6 122.5 55.8 122 56C121.5 56.1 121 56.2 120.5 56.2Z" fill="#1A1A18"/>
<path d="M129.499 46.1008V47.4008H124.799V46.1008H129.499ZM126.299 43.8008H127.999V53.6008C127.999 53.9008 127.999 54.2008 128.099 54.4008C128.199 54.6008 128.299 54.7008 128.399 54.7008C128.499 54.7008 128.699 54.8008 128.799 54.8008C128.899 54.8008 128.999 54.8008 129.199 54.8008C129.399 54.8008 129.399 54.7008 129.499 54.7008V56.1008C129.399 56.1008 129.199 56.2008 129.099 56.2008C128.899 56.2008 128.699 56.3008 128.399 56.3008C127.999 56.3008 127.699 56.2008 127.399 56.1008C127.099 55.9008 126.799 55.7008 126.699 55.3008C126.599 54.9008 126.399 54.4008 126.399 53.7008V43.8008H126.299Z" fill="#1A1A18"/>
<path d="M139.999 46.1008V47.4008H135.299V46.1008H139.999ZM138.299 56.0008H136.599V45.1008C136.599 44.4008 136.699 43.8008 136.999 43.3008C137.199 42.8008 137.599 42.4008 137.999 42.2008C138.499 41.9008 138.999 41.8008 139.599 41.8008C139.799 41.8008 140.099 41.8008 140.499 41.9008C140.899 42.0008 141.199 42.0008 141.699 42.1008C142.099 42.2008 142.499 42.3008 142.899 42.4008L142.199 43.6008C141.699 43.5008 141.199 43.4008 140.799 43.4008C140.399 43.3008 140.099 43.3008 139.799 43.3008C139.499 43.3008 139.199 43.4008 138.999 43.5008C138.799 43.6008 138.599 43.8008 138.499 44.1008C138.399 44.4008 138.299 44.7008 138.299 45.1008V56.0008ZM141.199 56.0008V42.4008H142.799V56.0008H141.199Z" fill="#1A1A18"/>
<path d="M145.199 51.5V50.6C145.199 49.8 145.299 49.2 145.499 48.6C145.699 48 145.999 47.5 146.299 47.2C146.599 46.9 147.099 46.5 147.499 46.3C147.999 46.1 148.499 46 148.999 46C149.599 46 150.099 46.1 150.499 46.3C150.999 46.5 151.399 46.8 151.699 47.2C152.099 47.6 152.299 48.1 152.499 48.6C152.699 49.1 152.799 49.8 152.799 50.6V51.5C152.799 52.3 152.699 52.9 152.499 53.5C152.299 54.1 151.999 54.6 151.699 54.9C151.299 55.3 150.899 55.6 150.499 55.8C149.999 56 149.499 56.1 148.999 56.1C148.499 56.1 147.899 56 147.499 55.8C146.999 55.6 146.599 55.3 146.299 54.9C145.999 54.5 145.699 54 145.499 53.5C145.299 53 145.199 52.3 145.199 51.5ZM146.899 50.6V51.5C146.899 52 146.999 52.5 147.099 52.9C147.199 53.3 147.399 53.6 147.599 53.9C147.799 54.2 147.999 54.4 148.299 54.5C148.599 54.6 148.899 54.7 149.199 54.7C149.599 54.7 149.899 54.6 150.199 54.5C150.499 54.4 150.699 54.2 150.899 53.9C151.099 53.6 151.199 53.3 151.299 52.9C151.399 52.5 151.399 52 151.399 51.5V50.6C151.399 50.1 151.299 49.6 151.199 49.2C151.099 48.8 150.899 48.5 150.699 48.2C150.499 47.9 150.299 47.7 149.999 47.6C149.699 47.5 149.399 47.4 149.099 47.4C148.799 47.4 148.499 47.5 148.199 47.6C147.899 47.7 147.699 47.9 147.499 48.2C147.299 48.5 147.099 48.8 146.999 49.2C146.899 49.6 146.899 50.1 146.899 50.6Z" fill="#1A1A18"/>
<path d="M154.799 51.5V50.6C154.799 49.8 154.899 49.2 155.099 48.6C155.299 48 155.599 47.5 155.899 47.2C156.199 46.9 156.699 46.5 157.099 46.3C157.599 46.1 158.099 46 158.599 46C159.199 46 159.699 46.1 160.099 46.3C160.599 46.5 160.999 46.8 161.299 47.2C161.599 47.6 161.899 48.1 162.099 48.6C162.299 49.2 162.399 49.8 162.399 50.6V51.5C162.399 52.3 162.299 52.9 162.099 53.5C161.899 54.1 161.599 54.6 161.299 54.9C160.999 55.2 160.499 55.6 160.099 55.8C159.599 56 159.099 56.1 158.599 56.1C158.099 56.1 157.499 56 157.099 55.8C156.599 55.6 156.199 55.3 155.899 54.9C155.499 54.5 155.299 54 155.099 53.5C154.899 53 154.799 52.3 154.799 51.5ZM156.499 50.6V51.5C156.499 52 156.599 52.5 156.699 52.9C156.799 53.3 156.999 53.6 157.199 53.9C157.399 54.2 157.599 54.4 157.899 54.5C158.199 54.6 158.499 54.7 158.799 54.7C159.199 54.7 159.499 54.6 159.799 54.5C160.099 54.4 160.299 54.2 160.499 53.9C160.699 53.6 160.799 53.3 160.899 52.9C160.999 52.5 160.999 52 160.999 51.5V50.6C160.999 50.1 160.899 49.6 160.799 49.2C160.699 48.8 160.499 48.5 160.299 48.2C160.099 47.9 159.899 47.7 159.599 47.6C159.299 47.5 158.999 47.4 158.699 47.4C158.399 47.4 158.099 47.5 157.799 47.6C157.499 47.7 157.299 47.9 157.099 48.2C156.899 48.5 156.699 48.8 156.599 49.2C156.499 49.6 156.499 50.1 156.499 50.6Z" fill="#1A1A18"/>
<path d="M166.399 47.6991V55.9992H164.699V46.1991H166.299L166.399 47.6991ZM168.899 46.0991V47.6991C168.799 47.6991 168.599 47.6991 168.499 47.5991C168.399 47.5991 168.299 47.5991 168.099 47.5991C167.799 47.5991 167.499 47.6991 167.299 47.7991C167.099 47.8991 166.899 48.0991 166.699 48.2991C166.499 48.4991 166.399 48.7991 166.299 49.0991C166.199 49.3991 166.099 49.6991 166.099 50.0991L165.699 50.3992C165.699 49.7992 165.699 49.1991 165.799 48.6991C165.899 48.1991 165.999 47.6991 166.299 47.2991C166.599 46.8991 166.799 46.5992 167.099 46.3992C167.399 46.1992 167.799 46.0991 168.299 46.0991C168.399 46.0991 168.499 46.0991 168.699 46.0991C168.799 45.9991 168.899 46.0991 168.899 46.0991Z" fill="#1A1A18"/>
<path d="M174.8 56.2C174.2 56.2 173.6 56.1 173.2 55.9C172.8 55.7 172.3 55.5 172 55.1C171.7 54.7 171.4 54.3 171.2 53.7C171 53.1 170.9 52.5 170.9 51.7V50.6C170.9 49.7 171 49 171.2 48.4C171.4 47.8 171.7 47.3 172 47C172.3 46.7 172.8 46.4 173.2 46.2C173.6 46 174.1 46 174.6 46C175.2 46 175.8 46.1 176.2 46.3C176.6 46.5 177 46.8 177.3 47.2C177.6 47.6 177.8 48.1 177.9 48.7C178 49.3 178.1 49.9 178.1 50.7V51.6H171.8V50.2H176.5V50C176.5 49.5 176.4 49 176.3 48.7C176.2 48.4 176 48 175.7 47.8C175.4 47.6 175.1 47.5 174.6 47.5C174.3 47.5 174 47.5 173.8 47.6C173.5 47.7 173.3 47.9 173.1 48.1C172.9 48.3 172.8 48.7 172.7 49.1C172.6 49.5 172.5 50.1 172.5 50.7V51.8C172.5 52.3 172.6 52.8 172.7 53.2C172.8 53.6 173 53.9 173.2 54.1C173.4 54.3 173.7 54.5 173.9 54.6C174.2 54.7 174.5 54.8 174.9 54.8C175.5 54.8 175.9 54.7 176.3 54.5C176.7 54.3 177 54 177.2 53.7L178.1 54.7C177.9 54.9 177.7 55.2 177.4 55.4C177.1 55.6 176.8 55.8 176.3 56C175.9 56.1 175.4 56.2 174.8 56.2Z" fill="#1A1A18"/>
<path d="M179.801 51.5016V50.6016C179.801 49.8016 179.901 49.1016 180.001 48.5016C180.101 47.9016 180.401 47.4016 180.701 47.1016C181.001 46.7016 181.401 46.4016 181.801 46.3016C182.201 46.1016 182.701 46.0016 183.201 46.0016C183.701 46.0016 184.201 46.1016 184.601 46.3016C185.001 46.5016 185.301 46.8016 185.501 47.2016C185.701 47.6016 186.001 48.1016 186.101 48.6016C186.201 49.1016 186.301 49.8016 186.401 50.5016V51.7016C186.301 52.4016 186.201 53.0016 186.101 53.6016C186.001 54.2016 185.801 54.6016 185.501 55.0016C185.201 55.4016 184.901 55.7016 184.501 55.9016C184.101 56.1016 183.701 56.2016 183.101 56.2016C182.601 56.2016 182.101 56.1016 181.701 55.9016C181.301 55.7016 180.901 55.4016 180.601 55.0016C180.301 54.6016 180.101 54.1016 179.901 53.6016C179.901 53.0016 179.801 52.3016 179.801 51.5016ZM181.501 50.6016V51.5016C181.501 52.0016 181.501 52.5016 181.601 52.9016C181.701 53.3016 181.801 53.6016 182.001 53.9016C182.201 54.2016 182.401 54.4016 182.701 54.5016C183.001 54.6016 183.301 54.7016 183.701 54.7016C184.201 54.7016 184.501 54.6016 184.801 54.4016C185.101 54.2016 185.301 53.9016 185.501 53.5016C185.701 53.1016 185.801 52.8016 185.901 52.3016V49.7016C185.801 49.4016 185.701 49.1016 185.601 48.8016C185.501 48.5016 185.301 48.3016 185.201 48.0016C185.001 47.8016 184.801 47.6016 184.601 47.5016C184.301 47.4016 184.101 47.3016 183.701 47.3016C183.301 47.3016 183.001 47.4016 182.701 47.5016C182.401 47.6016 182.201 47.8016 182.001 48.1016C181.801 48.4016 181.701 48.7016 181.601 49.1016C181.501 49.6016 181.501 50.1016 181.501 50.6016ZM185.501 54.1016V42.1016H187.101V56.1016H185.601L185.501 54.1016Z" fill="#1A1A18"/>
<path d="M194.901 46.1016L196.801 54.3016V56.0016H195.701L193.201 46.2016H194.901V46.1016ZM196.101 54.2016L198.301 46.1016H199.401L199.301 47.7016L197.101 55.9016H196.101V54.2016ZM199.701 46.1016L201.901 54.1016L202.101 56.0016H201.101L198.801 47.8016L198.701 46.2016H199.701V46.1016ZM201.401 54.3016L203.201 46.2016H204.801L202.301 56.0016H201.201L201.401 54.3016Z" fill="#1A1A18"/>
<path d="M206.5 43.5C206.5 43.2 206.6 43 206.7 42.8C206.9 42.6 207.1 42.5 207.4 42.5C207.7 42.5 207.9 42.6 208.1 42.8C208.3 43 208.3 43.2 208.3 43.5C208.3 43.8 208.2 44 208.1 44.2C207.9 44.4 207.7 44.5 207.4 44.5C207.1 44.5 206.9 44.4 206.7 44.2C206.6 44 206.5 43.8 206.5 43.5ZM208.3 46.1V55.9H206.7V46.1H208.3Z" fill="#1A1A18"/>
<path d="M214.6 46.1008V47.4008H209.9V46.1008H214.6ZM211.4 43.8008H213.1V53.6008C213.1 53.9008 213.1 54.2008 213.2 54.4008C213.3 54.6008 213.4 54.7008 213.5 54.7008C213.6 54.7008 213.8 54.8008 213.9 54.8008C214 54.8008 214.1 54.8008 214.3 54.8008C214.5 54.8008 214.5 54.7008 214.6 54.7008V56.1008C214.5 56.1008 214.3 56.2008 214.2 56.2008C214 56.2008 213.8 56.3008 213.5 56.3008C213.1 56.3008 212.8 56.2008 212.5 56.1008C212.2 55.9008 211.9 55.7008 211.8 55.3008C211.6 54.9008 211.5 54.4008 211.5 53.7008V43.8008H211.4Z" fill="#1A1A18"/>
<path d="M218.2 42V56H216.5V42H218.2ZM217.8 50.7H217.1C217.1 50 217.2 49.4 217.3 48.8C217.4 48.2 217.7 47.7 218 47.3C218.3 46.9 218.7 46.5 219.1 46.3C219.5 46.1 220 45.9 220.5 45.9C220.9 45.9 221.3 46 221.6 46.1C221.9 46.2 222.2 46.4 222.5 46.7C222.7 47 222.9 47.4 223 47.8C223.1 48.3 223.2 48.8 223.2 49.4V55.8H221.5V49.3C221.5 48.8 221.4 48.4 221.3 48.1C221.2 47.8 221 47.6 220.8 47.4C220.6 47.3 220.3 47.2 219.9 47.2C219.6 47.2 219.3 47.3 219 47.5C218.7 47.7 218.5 47.9 218.3 48.2C218.1 48.5 217.9 48.9 217.8 49.3C217.9 49.8 217.8 50.2 217.8 50.7Z" fill="#1A1A18"/>
<path d="M229.9 51.5V50.6C229.9 49.8 230 49.1 230.1 48.5C230.3 47.9 230.5 47.4 230.8 47.1C231.1 46.7 231.5 46.4 231.9 46.3C232.3 46.1 232.8 46 233.3 46C233.8 46 234.3 46.1 234.7 46.3C235.1 46.5 235.4 46.8 235.7 47.2C236 47.6 236.2 48.1 236.3 48.6C236.4 49.2 236.5 49.8 236.6 50.5V51.7C236.5 52.4 236.4 53 236.3 53.6C236.2 54.2 235.9 54.6 235.7 55C235.5 55.4 235.1 55.7 234.7 55.9C234.3 56.1 233.9 56.2 233.3 56.2C232.8 56.2 232.3 56.1 231.9 55.9C231.5 55.7 231.1 55.4 230.8 55C230.5 54.6 230.3 54.1 230.1 53.6C229.9 53 229.9 52.3 229.9 51.5ZM231.5 50.6V51.5C231.5 52 231.5 52.5 231.6 52.9C231.7 53.3 231.8 53.6 232 53.9C232.2 54.2 232.4 54.4 232.7 54.5C233 54.6 233.3 54.7 233.7 54.7C234.2 54.7 234.5 54.6 234.8 54.4C235.1 54.2 235.3 53.9 235.5 53.5C235.7 53.1 235.8 52.7 235.9 52.3V49.7C235.8 49.4 235.7 49.1 235.6 48.8C235.5 48.5 235.3 48.2 235.1 48C234.9 47.8 234.7 47.6 234.4 47.4C234.1 47.2 233.8 47.2 233.5 47.2C233.1 47.2 232.8 47.3 232.5 47.4C232.2 47.5 232 47.7 231.8 48C231.6 48.3 231.5 48.6 231.4 49C231.6 49.6 231.5 50.1 231.5 50.6ZM235.5 59.8V48.1L235.6 46.2H237.1V59.8H235.5Z" fill="#1A1A18"/>
<path d="M245.201 51.6016H245.901C245.901 52.3016 245.801 52.9016 245.701 53.4016C245.601 54.0016 245.401 54.4016 245.101 54.8016C244.801 55.2016 244.501 55.5016 244.101 55.7016C243.701 55.9016 243.201 56.0016 242.501 56.0016C242.101 56.0016 241.701 55.9016 241.401 55.8016C241.101 55.7016 240.801 55.4016 240.501 55.2016C240.301 54.9016 240.101 54.5016 239.901 54.1016C239.801 53.6016 239.701 53.1016 239.701 52.4016V46.1016H241.301V52.5016C241.301 52.9016 241.301 53.3016 241.401 53.6016C241.501 53.9016 241.601 54.1016 241.701 54.3016C241.801 54.5016 242.001 54.6016 242.201 54.6016C242.401 54.7016 242.501 54.7016 242.701 54.7016C243.301 54.7016 243.801 54.6016 244.101 54.3016C244.401 54.0016 244.701 53.7016 244.901 53.2016C245.201 52.7016 245.201 52.2016 245.201 51.6016ZM244.901 53.7016V46.1016H246.601V55.9016H245.001L244.901 53.7016Z" fill="#1A1A18"/>
<path d="M254.3 49.9992V51.1992H253.1C252.7 51.1992 252.3 51.1992 252 51.2992C251.7 51.3992 251.4 51.4992 251.2 51.6992C251 51.8992 250.8 52.0992 250.7 52.2992C250.6 52.4992 250.5 52.7992 250.5 53.0992C250.5 53.4992 250.6 53.7992 250.7 53.9992C250.8 54.1992 251 54.3992 251.2 54.4992C251.4 54.5992 251.7 54.6992 252.1 54.6992C252.5 54.6992 252.9 54.5992 253.2 54.3992C253.5 54.1992 253.8 53.9992 253.9 53.6992C254 53.3992 254.2 53.1992 254.1 52.9992L254.5 53.7992C254.5 53.9992 254.4 54.2992 254.3 54.5992C254.2 54.8992 254 55.0992 253.7 55.3992C253.5 55.6992 253.2 55.8992 252.9 55.9992C252.6 56.1992 252.2 56.1992 251.8 56.1992C251.2 56.1992 250.7 56.0992 250.3 55.8992C249.9 55.6992 249.5 55.3992 249.3 54.8992C249.1 54.4992 248.9 53.9992 248.9 53.2992C248.9 52.7992 249 52.3992 249.2 51.9992C249.4 51.5992 249.6 51.2992 249.9 50.9992C250.2 50.6992 250.6 50.4992 251.1 50.2992C251.6 50.0992 252.2 50.0992 252.8 50.0992H254.3V49.9992ZM254 54.2992V48.9992C254 48.5992 253.9 48.2992 253.8 48.0992C253.7 47.8992 253.5 47.6992 253.3 47.5992C253.1 47.4992 252.8 47.3992 252.4 47.3992C252.1 47.3992 251.7 47.4992 251.5 47.5992C251.2 47.6992 251.1 47.8992 250.9 48.1992C250.8 48.3992 250.7 48.6992 250.7 48.9992H249.1C249.1 48.5992 249.2 48.2992 249.3 47.9992C249.5 47.6992 249.7 47.2992 250 47.0992C250.3 46.7992 250.7 46.5992 251.1 46.3992C251.5 46.1992 252 46.1992 252.5 46.1992C253.1 46.1992 253.7 46.2992 254.2 46.4992C254.7 46.6992 255.1 46.9992 255.3 47.4992C255.6 47.8992 255.7 48.4992 255.7 49.2992V54.1992C255.7 54.4992 255.7 54.8992 255.8 55.1992C255.9 55.5992 255.9 55.8992 256 56.1992V56.2992H254.3C254.2 56.0992 254.2 55.7992 254.1 55.4992C254 54.8992 254 54.5992 254 54.2992Z" fill="#1A1A18"/>
<path d="M260 42V56H258.4V42H260Z" fill="#1A1A18"/>
<path d="M262.701 43.5C262.701 43.2 262.801 43 262.901 42.8C263.101 42.6 263.301 42.5 263.601 42.5C263.901 42.5 264.101 42.6 264.301 42.8C264.501 43 264.501 43.2 264.501 43.5C264.501 43.8 264.401 44 264.301 44.2C264.101 44.4 263.901 44.5 263.601 44.5C263.301 44.5 263.101 44.4 262.901 44.2C262.801 44 262.701 43.8 262.701 43.5ZM264.401 46.1V55.9H262.801V46.1H264.401Z" fill="#1A1A18"/>
<path d="M270.7 46.1008V47.4008H266V46.1008H270.7ZM267.6 43.8008H269.3V53.6008C269.3 53.9008 269.3 54.2008 269.4 54.4008C269.5 54.6008 269.6 54.7008 269.7 54.7008C269.8 54.7008 270 54.8008 270.1 54.8008C270.2 54.8008 270.3 54.8008 270.5 54.8008C270.7 54.8008 270.7 54.7008 270.8 54.7008V56.1008C270.7 56.1008 270.5 56.2008 270.4 56.2008C270.2 56.2008 270 56.3008 269.7 56.3008C269.3 56.3008 269 56.2008 268.7 56.1008C268.4 55.9008 268.1 55.7008 268 55.3008C267.8 54.9008 267.7 54.4008 267.7 53.7008V43.8008H267.6Z" fill="#1A1A18"/>
<path d="M273.601 46.1016L275.601 53.7016L276.001 55.5016L274.801 56.1016L271.701 46.1016H273.601ZM275.101 55.0016L277.401 46.2016H279.201L275.901 57.6016C275.801 57.8016 275.701 58.1016 275.601 58.4016C275.501 58.7016 275.301 58.9016 275.101 59.2016C274.901 59.5016 274.601 59.7016 274.401 59.8016C274.101 60.0016 273.801 60.0016 273.401 60.0016C273.301 60.0016 273.101 60.0016 272.901 59.9016C272.701 59.9016 272.601 59.8016 272.501 59.8016V58.4016C272.501 58.4016 272.601 58.4016 272.701 58.4016C272.801 58.4016 272.801 58.4016 272.901 58.4016C273.201 58.4016 273.501 58.4016 273.701 58.2016C273.901 58.1016 274.101 57.9016 274.301 57.7016C274.501 57.5016 274.601 57.1016 274.701 56.7016L275.101 55.0016Z" fill="#1A1A18"/>
<path d="M286.7 48.0984V55.9984H285.1V46.1984H286.7V48.0984ZM286.4 50.6984H285.6C285.6 49.9984 285.7 49.3984 285.8 48.7984C285.9 48.1984 286.2 47.6984 286.5 47.2984C286.8 46.8984 287.2 46.4984 287.6 46.2984C288 46.0984 288.6 45.8984 289.1 45.8984C289.5 45.8984 289.8 45.9984 290.2 46.0984C290.5 46.1984 290.8 46.3984 291.1 46.6984C291.3 46.9984 291.5 47.2984 291.7 47.7984C291.8 48.1984 291.9 48.7984 291.9 49.3984V55.9984H290.2V49.4984C290.2 48.9984 290.1 48.5984 290 48.2984C289.9 47.9984 289.7 47.7984 289.4 47.5984C289.1 47.4984 288.8 47.3984 288.5 47.3984C288.1 47.3984 287.8 47.4984 287.5 47.6984C287.2 47.8984 287 48.0984 286.9 48.3984C286.7 48.6984 286.6 49.0984 286.6 49.4984C286.4 49.7984 286.4 50.1984 286.4 50.6984ZM291.9 49.7984L290.8 50.0984C290.8 49.5984 290.9 48.9984 291 48.4984C291.1 47.9984 291.4 47.5984 291.6 47.1984C291.9 46.7984 292.2 46.4984 292.7 46.2984C293.1 46.0984 293.6 45.9984 294.2 45.9984C294.7 45.9984 295.1 46.0984 295.4 46.1984C295.8 46.2984 296.1 46.5984 296.3 46.7984C296.5 47.0984 296.7 47.4984 296.9 47.8984C297.1 48.2984 297.1 48.8984 297.1 49.4984V55.9984H295.4V49.4984C295.4 48.8984 295.3 48.4984 295.2 48.1984C295.1 47.8984 294.9 47.6984 294.6 47.5984C294.3 47.4984 294 47.3984 293.7 47.3984C293.4 47.3984 293.2 47.4984 292.9 47.5984C292.7 47.6984 292.5 47.8984 292.3 48.0984C292.2 48.2984 292 48.5984 292 48.8984C291.9 49.0984 291.9 49.3984 291.9 49.7984Z" fill="#1A1A18"/>
<path d="M304.701 49.9992V51.1992H303.501C303.101 51.1992 302.701 51.1992 302.401 51.2992C302.101 51.3992 301.801 51.4992 301.601 51.6992C301.401 51.8992 301.201 52.0992 301.101 52.2992C301.001 52.4992 300.901 52.7992 300.901 53.0992C300.901 53.4992 301.001 53.7992 301.101 53.9992C301.201 54.1992 301.401 54.3992 301.601 54.4992C301.801 54.5992 302.101 54.6992 302.501 54.6992C302.901 54.6992 303.301 54.5992 303.601 54.3992C303.901 54.1992 304.201 53.9992 304.301 53.6992C304.401 53.3992 304.601 53.1992 304.501 52.9992L304.901 53.7992C304.901 53.9992 304.801 54.2992 304.701 54.5992C304.601 54.8992 304.401 55.0992 304.101 55.3992C303.901 55.6992 303.601 55.8992 303.301 55.9992C303.001 56.1992 302.601 56.1992 302.201 56.1992C301.601 56.1992 301.101 56.0992 300.701 55.8992C300.301 55.6992 299.901 55.3992 299.701 54.8992C299.501 54.4992 299.301 53.9992 299.301 53.2992C299.301 52.7992 299.401 52.3992 299.601 51.9992C299.801 51.5992 300.001 51.2992 300.301 50.9992C300.601 50.6992 301.001 50.4992 301.501 50.2992C302.001 50.0992 302.601 50.0992 303.201 50.0992H304.701V49.9992ZM304.501 54.2992V48.9992C304.501 48.5992 304.401 48.2992 304.301 48.0992C304.201 47.8992 304.001 47.6992 303.801 47.5992C303.601 47.4992 303.301 47.3992 302.901 47.3992C302.601 47.3992 302.201 47.4992 302.001 47.5992C301.701 47.6992 301.601 47.8992 301.401 48.1992C301.301 48.3992 301.201 48.6992 301.201 48.9992H299.501C299.501 48.5992 299.601 48.2992 299.701 47.9992C299.901 47.6992 300.101 47.2992 300.401 47.0992C300.701 46.7992 301.101 46.5992 301.501 46.3992C301.901 46.1992 302.401 46.1992 302.901 46.1992C303.501 46.1992 304.101 46.2992 304.601 46.4992C305.101 46.6992 305.501 46.9992 305.701 47.4992C306.001 47.8992 306.101 48.4992 306.101 49.2992V54.1992C306.101 54.4992 306.101 54.8992 306.201 55.1992C306.301 55.5992 306.301 55.8992 306.401 56.1992V56.2992H304.701C304.601 56.0992 304.601 55.7992 304.501 55.4992C304.501 54.8992 304.501 54.5992 304.501 54.2992Z" fill="#1A1A18"/>
<path d="M312.401 46.1008V47.4008H307.701V46.1008H312.401ZM309.201 43.8008H310.901V53.6008C310.901 53.9008 310.901 54.2008 311.001 54.4008C311.101 54.6008 311.201 54.7008 311.301 54.7008C311.401 54.7008 311.601 54.8008 311.701 54.8008C311.801 54.8008 311.901 54.8008 312.101 54.8008C312.301 54.8008 312.301 54.7008 312.401 54.7008V56.1008C312.301 56.1008 312.101 56.2008 312.001 56.2008C311.801 56.2008 311.601 56.3008 311.301 56.3008C310.901 56.3008 310.601 56.2008 310.301 56.1008C310.001 55.9008 309.701 55.7008 309.601 55.3008C309.401 54.9008 309.301 54.4008 309.301 53.7008V43.8008H309.201Z" fill="#1A1A18"/>
</svg>
