<svg width="476" height="454" viewBox="0 0 476 454" fill="none" xmlns="http://www.w3.org/2000/svg">
<path fill-rule="evenodd" clip-rule="evenodd" d="M297.32 192.963C279.169 194.544 262.544 201.452 249.017 212.114C263.934 216.958 280.806 219.465 297.32 220.059V192.963ZM266.61 232.858C261.822 246.315 259.265 261.034 258.6 275.636H297.32V236.066C286.585 235.696 276.261 234.589 266.61 232.858ZM258.603 291.636C259.328 307.379 262.171 321.956 266.61 334.421C276.261 332.691 286.585 331.584 297.32 331.214V291.636H258.603ZM273.305 349.481C279.881 361.48 288.243 370.041 297.321 373.249V347.22C288.924 347.522 280.873 348.297 273.305 349.481ZM263.938 364.727C261.395 360.968 259.114 356.974 257.074 352.822C254.368 353.521 251.683 354.302 249.024 355.163C253.673 358.828 258.668 362.031 263.938 364.727ZM250.954 337.944C246.275 324.209 243.308 308.453 242.589 291.636H234.069C231.947 291.636 229.912 290.793 228.412 289.293C226.912 287.792 226.069 285.758 226.069 283.636C226.069 281.514 226.912 279.479 228.412 277.979C229.912 276.479 231.947 275.636 234.069 275.636H242.592C243.271 259.941 245.966 243.97 250.956 229.336C245.72 227.898 240.777 226.257 236.181 224.436C206.996 258.489 206.998 308.79 236.186 342.841C240.78 341.022 245.721 339.381 250.954 337.944ZM259.025 98.9188C268.543 98.9188 276.858 104.85 280.134 113.488H332.298C334.42 113.488 336.455 114.331 337.955 115.831C339.455 117.331 340.298 119.366 340.298 121.488V155.072C351.528 158.093 362.313 162.573 372.38 168.395L396.151 144.623C397.651 143.123 399.686 142.28 401.807 142.28C403.929 142.28 405.964 143.123 407.464 144.623L415.07 152.229C404.948 121.574 376.191 100.127 342.938 100.127V100.096C340.825 100.096 338.798 99.2559 337.303 97.7614C335.809 96.267 334.969 94.2402 334.969 92.1268C334.969 50.2588 300.97 16.2148 259.025 16.2148C240.515 16.2148 223.565 22.8228 210.411 33.8048C197.036 44.9698 187.56 60.6178 184.319 78.4128C183.325 84.2348 176.405 87.2328 171.542 83.4328C149.734 66.3898 118.4 68.1938 98.674 87.9218C88.619 97.9778 82.542 111.645 82.542 126.871C82.542 128.993 81.6991 131.027 80.1989 132.528C78.6986 134.028 76.6637 134.871 74.542 134.871C42.228 134.871 16.028 161.051 16.002 193.363C81.642 121.59 193.259 117.967 263.384 185.15C303.774 167.927 350.32 177.287 380.997 207.964C422.792 249.759 422.791 317.517 380.997 359.312C339.203 401.107 271.443 401.106 229.649 359.312C180.964 310.627 190.359 229.534 248.391 193.004C179.533 131.359 72.056 142.341 17.169 217.05C13.266 222.362 4.878 220.961 3.031 214.431C-4.518 187.737 2.342 160.197 21.836 140.704C33.652 128.888 49.416 121.021 66.979 119.251C71.791 73.9718 117.657 44.8138 160.753 59.6458C164.435 60.9146 168.005 62.4877 171.426 64.3488C183.396 26.5358 218.622 0.216797 259.028 0.216797C307.004 0.216797 346.678 37.0498 350.591 84.4448C372.762 86.2768 392.716 95.9948 407.643 110.794C423.509 126.525 433.665 148.018 434.728 171.887L444.868 182.027C446.368 183.527 447.211 185.562 447.211 187.683C447.211 189.805 446.368 191.84 444.868 193.34L421.11 217.098C426.902 227.179 431.367 237.966 434.393 249.192H468C470.122 249.192 472.157 250.035 473.657 251.535C475.157 253.035 476 255.07 476 257.192V310.086C476 312.208 475.157 314.242 473.657 315.743C472.157 317.243 470.122 318.086 468 318.086H434.416C431.395 329.316 426.915 340.101 421.093 350.168L444.864 373.939C446.364 375.439 447.207 377.474 447.207 379.595C447.207 381.717 446.364 383.752 444.864 385.252L407.462 422.654C405.962 424.154 403.927 424.997 401.806 424.997C399.684 424.997 397.649 424.154 396.149 422.654L372.391 398.896C362.31 404.688 351.522 409.152 340.296 412.178V445.789C340.296 447.911 339.453 449.945 337.953 451.446C336.453 452.946 334.418 453.789 332.296 453.789H279.402C277.28 453.789 275.245 452.946 273.745 451.446C272.245 449.945 271.402 447.911 271.402 445.789V412.205C260.173 409.184 249.387 404.705 239.321 398.883L215.55 422.654C214.05 424.154 212.015 424.997 209.893 424.997C207.772 424.997 205.737 424.154 204.237 422.654L166.835 385.252C165.335 383.752 164.492 381.717 164.492 379.595C164.492 377.474 165.335 375.439 166.835 373.939L190.593 350.181C184.801 340.1 180.336 329.312 177.311 318.086H164.809C159.04 333.301 139.367 337.67 127.742 326.044C113.556 311.857 123.665 287.517 143.7 287.517C153.216 287.517 161.534 293.448 164.809 302.085H183.592V302.091C185.419 302.092 187.19 302.718 188.611 303.865C190.033 305.012 191.019 306.611 191.405 308.397C192.887 315.269 194.982 321.995 197.664 328.494C200.283 334.816 203.45 340.897 207.131 346.667C208.263 348.208 208.805 350.103 208.66 352.01C208.515 353.916 207.692 355.708 206.34 357.06L183.805 379.594L209.894 405.683L232.446 383.131L232.456 383.141C233.745 381.853 235.435 381.045 237.246 380.849C239.057 380.654 240.881 381.084 242.414 382.068C248.336 385.881 254.586 389.157 261.091 391.859C267.451 394.495 274.031 396.561 280.756 398.035C282.616 398.355 284.302 399.321 285.519 400.764C286.735 402.207 287.402 404.033 287.402 405.92V437.786H324.296V405.894H324.302C324.303 404.067 324.929 402.296 326.076 400.874C327.223 399.453 328.823 398.467 330.608 398.081C337.48 396.598 344.206 394.504 350.704 391.822C357.027 389.203 363.108 386.035 368.877 382.355C370.418 381.223 372.313 380.681 374.22 380.826C376.126 380.971 377.918 381.794 379.27 383.146L401.804 405.68L427.893 379.591L405.341 357.039L405.351 357.029C404.063 355.74 403.255 354.05 403.059 352.239C402.864 350.428 403.294 348.604 404.278 347.071C408.091 341.149 411.367 334.898 414.069 328.394C416.706 322.034 418.772 315.454 420.245 308.729C420.565 306.869 421.531 305.182 422.974 303.966C424.417 302.75 426.243 302.083 428.13 302.083H460V265.189H428.108V265.183C426.281 265.182 424.51 264.556 423.089 263.409C421.667 262.261 420.681 260.662 420.295 258.877C418.812 252.005 416.718 245.28 414.037 238.781C411.418 232.458 408.251 226.377 404.57 220.608C403.438 219.067 402.896 217.171 403.041 215.265C403.186 213.358 404.009 211.567 405.361 210.215L427.896 187.681L401.807 161.592L379.255 184.144L379.245 184.134C377.956 185.422 376.266 186.23 374.455 186.425C372.644 186.621 370.82 186.191 369.287 185.207C363.365 181.393 357.114 178.117 350.609 175.416C344.25 172.78 337.669 170.713 330.944 169.24C329.084 168.92 327.398 167.953 326.181 166.511C324.965 165.068 324.298 163.242 324.298 161.355V129.489H280.134C274.362 144.707 254.69 149.071 243.067 137.447C228.881 123.258 238.99 98.9188 259.025 98.9188ZM263.67 116.842C259.546 112.718 252.456 115.648 252.456 121.487C252.456 127.327 259.547 130.256 263.67 126.132C264.901 124.9 265.593 123.229 265.593 121.487C265.593 119.745 264.901 118.074 263.67 116.842ZM148.348 305.438C144.224 301.314 137.134 304.243 137.134 310.083C137.134 315.923 144.225 318.852 148.348 314.728C149.579 313.496 150.271 311.825 150.271 310.083C150.271 308.341 149.579 306.67 148.348 305.438ZM101.569 310.083C101.569 286.813 120.432 267.95 143.702 267.95C145.824 267.95 147.859 267.107 149.359 265.607C150.859 264.106 151.702 262.072 151.702 259.95C151.702 257.828 150.859 255.793 149.359 254.293C147.859 252.793 145.824 251.95 143.702 251.95C111.598 251.95 85.569 277.979 85.569 310.083C85.569 312.205 86.4119 314.239 87.9121 315.74C89.4124 317.24 91.4473 318.083 93.569 318.083C95.6907 318.083 97.7256 317.24 99.2259 315.74C100.726 314.239 101.569 312.205 101.569 310.083ZM143.702 209.165C87.969 209.165 42.784 254.349 42.784 310.083C42.784 312.205 43.6269 314.239 45.1271 315.74C46.6274 317.24 48.6623 318.083 50.784 318.083C52.9057 318.083 54.9406 317.24 56.4409 315.74C57.9411 314.239 58.784 312.205 58.784 310.083C58.784 263.183 96.802 225.165 143.702 225.165C145.824 225.165 147.859 224.322 149.359 222.822C150.859 221.321 151.702 219.287 151.702 217.165C151.702 215.043 150.859 213.008 149.359 211.508C147.859 210.008 145.824 209.165 143.702 209.165ZM143.702 166.381C64.339 166.381 0 230.72 0 310.083C0 312.205 0.842854 314.239 2.34315 315.74C3.84344 317.24 5.87827 318.083 8 318.083C10.1217 318.083 12.1566 317.24 13.6569 315.74C15.1571 314.239 16 312.205 16 310.083C16 239.553 73.173 182.381 143.702 182.381C145.824 182.381 147.859 181.538 149.359 180.038C150.859 178.537 151.702 176.503 151.702 174.381C151.702 172.259 150.859 170.224 149.359 168.724C147.859 167.224 145.824 166.381 143.702 166.381ZM313.32 220.061C321.664 219.762 329.576 219.016 337.339 217.798C330.764 205.797 322.399 197.232 313.32 194.023V220.061ZM313.32 236.065V275.636H352.038C351.313 259.896 348.47 245.321 344.032 232.858C334.079 234.644 323.724 235.704 313.32 236.065ZM313.32 291.636V331.215C323.715 331.575 334.082 332.636 344.028 334.421C348.817 320.964 351.376 306.238 352.04 291.636H313.32ZM313.32 347.219V374.309C331.562 372.72 348.263 365.75 361.826 354.996C361.214 354.954 360.609 354.841 360.023 354.661C345.419 350.146 329.401 347.795 313.32 347.219ZM359.683 337.942C361.392 338.411 363.068 338.901 364.711 339.411C366.39 339.927 367.852 340.984 368.87 342.416C369.888 343.848 370.405 345.576 370.34 347.332C384.675 332.701 394.111 313.25 395.993 291.635H368.049C367.37 307.332 364.673 323.307 359.683 337.942ZM368.05 275.636H395.993C394.111 254.021 384.674 234.572 370.339 219.941C370.405 221.698 369.889 223.427 368.871 224.861C367.853 226.295 366.391 227.352 364.71 227.869C363.069 228.379 361.395 228.868 359.688 229.336C364.367 243.07 367.331 258.824 368.05 275.636ZM361.837 212.283C357.126 208.545 352.056 205.283 346.702 202.545C349.247 206.308 351.528 210.301 353.569 214.456C355.595 213.93 360.398 212.38 361.837 212.283Z" fill="#FFAA17"/>
</svg>
