<svg width="40" height="40" viewBox="0 0 40 40" fill="none" xmlns="http://www.w3.org/2000/svg">
<g clip-path="url(#clip0_760_173)">
<rect width="40" height="40" rx="20" fill="white"/>
<path d="M20 0C16.0444 0 12.1776 1.17298 8.8886 3.37061C5.59962 5.56824 3.03617 8.69181 1.52242 12.3463C0.00866567 16.0009 -0.387401 20.0222 0.384303 23.9018C1.15601 27.7814 3.06082 31.3451 5.85787 34.1421C8.65492 36.9392 12.2186 38.844 16.0982 39.6157C19.9778 40.3874 23.9992 39.9913 27.6537 38.4776C31.3082 36.9638 34.4318 34.4004 36.6294 31.1114C38.827 27.8224 40 23.9556 40 20C39.9946 14.6973 37.8857 9.61341 34.1361 5.86386C30.3866 2.11431 25.3027 0.00543028 20 0ZM30.2564 15.4872L17.9487 26.7692C17.6653 27.0348 17.2909 27.1816 16.9026 27.1795C16.4873 27.1563 16.0974 26.9724 15.8154 26.6667L9.62052 20C9.47549 19.8462 9.36324 19.6646 9.2906 19.4661C9.21795 19.2676 9.18643 19.0564 9.19794 18.8454C9.20945 18.6343 9.26376 18.4278 9.35756 18.2384C9.45137 18.049 9.5827 17.8807 9.7436 17.7436C10.0321 17.4555 10.4231 17.2937 10.8308 17.2937C11.2385 17.2937 11.6295 17.4555 11.918 17.7436L17.0256 23.3641L28.2051 13.2308C28.3463 13.0629 28.5218 12.9271 28.7197 12.8326C28.9177 12.7381 29.1336 12.687 29.3529 12.6828C29.5722 12.6786 29.7899 12.7213 29.9914 12.8081C30.1928 12.8949 30.3734 13.0238 30.5209 13.1861C30.6685 13.3484 30.7796 13.5404 30.8469 13.7492C30.9142 13.958 30.936 14.1788 30.911 14.3967C30.8859 14.6146 30.8145 14.8247 30.7016 15.0127C30.5888 15.2008 30.437 15.3626 30.2564 15.4872Z" fill="#E2000F"/>
</g>
<defs>
<clipPath id="clip0_760_173">
<rect width="40" height="40" rx="20" fill="white"/>
</clipPath>
</defs>
</svg>
