<svg width="512" height="512" viewBox="0 0 512 512" fill="none" xmlns="http://www.w3.org/2000/svg">
<g clip-path="url(#clip0_273_2)">
<path d="M302.906 256.419L502.272 57.05C515.245 44.0816 515.245 23.113 502.272 10.1462C489.304 -2.82217 468.335 -2.82217 455.368 10.1462L255.998 209.514L56.6347 10.1462C43.6602 -2.82217 22.6993 -2.82217 9.73094 10.1462C-3.24365 23.1146 -3.24365 44.0816 9.73094 57.05L209.092 256.419L9.73249 455.787C-3.24209 468.755 -3.24209 489.724 9.73249 502.691C12.8086 505.775 16.4641 508.222 20.4887 509.89C24.5133 511.558 28.8279 512.414 33.1844 512.409C41.6745 512.409 50.1677 509.159 56.6363 502.691L255.998 303.323L455.368 502.691C458.445 505.775 462.1 508.221 466.125 509.889C470.149 511.557 474.464 512.413 478.82 512.409C487.31 512.409 495.804 509.159 502.272 502.691C515.245 489.722 515.245 468.755 502.272 455.787L302.906 256.419Z" fill="#E2000F"/>
</g>
<defs>
<clipPath id="clip0_273_2">
<rect width="512" height="512" fill="white"/>
</clipPath>
</defs>
</svg>
