<svg width="250" height="250" viewBox="0 0 250 250" fill="none" xmlns="http://www.w3.org/2000/svg">
<path d="M26.875 199.426H223.125C226.949 199.426 230.617 197.907 233.321 195.202C236.026 192.498 237.545 188.83 237.545 185.006C237.545 181.181 236.026 177.514 233.321 174.809C230.617 172.105 226.949 170.586 223.125 170.586H141.621L182.906 129.295V135.303C182.853 138.328 183.859 141.276 185.749 143.638C187.639 146.001 190.295 147.628 193.258 148.24C195.107 148.595 197.012 148.537 198.837 148.07C200.661 147.604 202.36 146.739 203.811 145.539C205.262 144.339 206.431 142.833 207.232 141.129C208.034 139.425 208.449 137.565 208.447 135.682L208.416 102.193C208.404 97.7703 206.643 93.5316 203.516 90.4031C200.389 87.2746 196.152 85.5105 191.729 85.4961L158.244 85.4453H158.221C156.336 85.446 154.476 85.8629 152.771 86.6661C151.067 87.4694 149.561 88.6393 148.361 90.0921C147.161 91.5449 146.297 93.2449 145.831 95.0704C145.364 96.8959 145.307 98.802 145.662 100.652C146.275 103.619 147.905 106.278 150.271 108.171C152.636 110.063 155.588 111.07 158.617 111.018H164.625L129.893 145.768C129.435 146.223 128.815 146.479 128.169 146.479C127.523 146.479 126.903 146.223 126.445 145.768L63.6055 83.1328C62.4052 81.9331 60.9804 80.9815 59.4125 80.3324C57.8445 79.6833 56.164 79.3494 54.467 79.3498C52.7699 79.3502 51.0896 79.6848 49.5219 80.3345C47.9542 80.9843 46.5298 81.9365 45.3301 83.1367C44.1304 84.337 43.1788 85.7617 42.5297 87.3297C41.8806 88.8977 41.5467 90.5782 41.5471 92.2752C41.5474 93.9723 41.8821 95.6526 42.5318 97.2203C43.1816 98.788 44.1337 100.212 45.334 101.412L112.305 168.178L114.711 170.586H26.875C23.0506 170.586 19.3828 172.105 16.6786 174.809C13.9743 177.514 12.4551 181.181 12.4551 185.006C12.4551 188.83 13.9743 192.498 16.6786 195.202C19.3828 197.907 23.0506 199.426 26.875 199.426ZM50.1641 96.5742C49.0232 95.4323 48.3826 93.8839 48.3834 92.2697C48.3841 90.6555 49.026 89.1077 50.168 87.9668C51.3099 86.8259 52.8583 86.1854 54.4725 86.1861C56.0867 86.1868 57.6345 86.8288 58.7754 87.9707L121.615 150.6C123.355 152.335 125.712 153.31 128.17 153.31C130.627 153.31 132.985 152.335 134.725 150.6L175.293 110.033C175.771 109.555 176.097 108.947 176.229 108.284C176.361 107.621 176.294 106.933 176.036 106.309C175.777 105.684 175.339 105.15 174.778 104.774C174.216 104.398 173.555 104.198 172.879 104.197L158.621 104.186C157.194 104.221 155.797 103.767 154.663 102.899C153.53 102.03 152.728 100.8 152.391 99.4121C152.218 98.5484 152.24 97.6572 152.454 96.8029C152.667 95.9485 153.068 95.1521 153.627 94.4712C154.185 93.7903 154.888 93.2418 155.684 92.8651C156.48 92.4884 157.35 92.293 158.23 92.293H158.24L191.725 92.3437C194.339 92.352 196.844 93.3946 198.692 95.2438C200.54 97.093 201.581 99.5985 201.588 102.213L201.619 135.699C201.619 136.578 201.424 137.446 201.048 138.241C200.672 139.036 200.125 139.737 199.445 140.295C198.766 140.853 197.971 141.253 197.118 141.467C196.265 141.68 195.376 141.702 194.514 141.531C193.126 141.197 191.896 140.396 191.028 139.263C190.161 138.13 189.709 136.733 189.748 135.307L189.734 121.049C189.734 120.373 189.533 119.713 189.157 119.151C188.781 118.589 188.247 118.152 187.622 117.894C186.997 117.636 186.31 117.568 185.648 117.701C184.985 117.833 184.376 118.159 183.898 118.637L134.627 167.912C132.914 169.624 130.592 170.586 128.17 170.586C125.748 170.586 123.426 169.624 121.713 167.912L50.1641 96.5742ZM26.875 177.422H45.625V183.053C45.625 183.959 45.9851 184.829 46.6261 185.47C47.2671 186.111 48.1365 186.471 49.043 186.471C49.9495 186.471 50.8188 186.111 51.4598 185.47C52.1008 184.829 52.4609 183.959 52.4609 183.053V177.422H83.5938V183.053C83.5938 183.959 83.9539 184.829 84.5949 185.47C85.2358 186.111 86.1052 186.471 87.0117 186.471C87.9182 186.471 88.7876 186.111 89.4286 185.47C90.0696 184.829 90.4297 183.959 90.4297 183.053V177.422H121.582V183.053C121.582 183.959 121.942 184.829 122.583 185.47C123.224 186.111 124.094 186.471 125 186.471C125.907 186.471 126.776 186.111 127.417 185.47C128.058 184.829 128.418 183.959 128.418 183.053V177.422H159.57V183.053C159.57 183.959 159.93 184.829 160.571 185.47C161.212 186.111 162.082 186.471 162.988 186.471C163.895 186.471 164.764 186.111 165.405 185.47C166.046 184.829 166.406 183.959 166.406 183.053V177.422H197.551V183.053C197.551 183.959 197.911 184.829 198.552 185.47C199.193 186.111 200.062 186.471 200.969 186.471C201.875 186.471 202.745 186.111 203.386 185.47C204.027 184.829 204.387 183.959 204.387 183.053V177.422H223.137C225.148 177.422 227.077 178.221 228.499 179.643C229.922 181.065 230.721 182.994 230.721 185.006C230.721 187.017 229.922 188.946 228.499 190.369C227.077 191.791 225.148 192.59 223.137 192.59H185.391V186.959C185.391 186.052 185.031 185.183 184.39 184.542C183.749 183.901 182.879 183.541 181.973 183.541C181.066 183.541 180.197 183.901 179.556 184.542C178.915 185.183 178.555 186.052 178.555 186.959V192.59H147.408V186.959C147.408 186.052 147.048 185.183 146.407 184.542C145.766 183.901 144.897 183.541 143.99 183.541C143.084 183.541 142.214 183.901 141.573 184.542C140.932 185.183 140.572 186.052 140.572 186.959V192.59H109.428V186.959C109.428 186.052 109.068 185.183 108.427 184.542C107.786 183.901 106.916 183.541 106.01 183.541C105.103 183.541 104.234 183.901 103.593 184.542C102.952 185.183 102.592 186.052 102.592 186.959V192.59H71.4453V186.959C71.4453 186.052 71.0852 185.183 70.4442 184.542C69.8032 183.901 68.9339 183.541 68.0273 183.541C67.1208 183.541 66.2515 183.901 65.6105 184.542C64.9695 185.183 64.6094 186.052 64.6094 186.959V192.59H26.875C24.8636 192.59 22.9346 191.791 21.5123 190.369C20.09 188.946 19.291 187.017 19.291 185.006C19.291 182.994 20.09 181.065 21.5123 179.643C22.9346 178.221 24.8636 177.422 26.875 177.422ZM234.127 209.627H15.873C14.9665 209.627 14.0972 209.987 13.4562 210.628C12.8152 211.269 12.4551 212.138 12.4551 213.045C12.4551 213.951 12.8152 214.821 13.4562 215.462C14.0972 216.103 14.9665 216.463 15.873 216.463H234.127C235.033 216.463 235.903 216.103 236.544 215.462C237.185 214.821 237.545 213.951 237.545 213.045C237.545 212.138 237.185 211.269 236.544 210.628C235.903 209.987 235.033 209.627 234.127 209.627ZM128.805 58.2773C131.136 58.2773 133.415 57.5861 135.354 56.2909C137.292 54.9958 138.803 53.1549 139.696 51.0011C140.588 48.8473 140.822 46.4772 140.368 44.1905C139.913 41.9038 138.791 39.8032 137.143 38.1542C135.495 36.5053 133.395 35.382 131.108 34.9265C128.822 34.4709 126.452 34.7035 124.297 35.5949C122.143 36.4863 120.301 37.9964 119.005 39.9344C117.709 41.8723 117.017 44.151 117.016 46.4824C117.017 49.6093 118.259 52.6079 120.469 54.8195C122.68 57.0311 125.678 58.2748 128.805 58.2773ZM128.805 41.5352C129.785 41.5352 130.742 41.8258 131.557 42.3703C132.372 42.9148 133.007 43.6888 133.381 44.5942C133.756 45.4996 133.854 46.4958 133.662 47.4567C133.471 48.4177 132.998 49.3003 132.305 49.9927C131.612 50.6852 130.729 51.1565 129.767 51.3469C128.806 51.5374 127.81 51.4385 126.905 51.0627C126 50.6869 125.227 50.0511 124.683 49.2358C124.14 48.4205 123.85 47.4623 123.852 46.4824C123.855 45.1703 124.378 43.9128 125.306 42.9855C126.234 42.0582 127.493 41.5367 128.805 41.5352Z" fill="white"/>
<path d="M118.34 94.4961C119.247 94.4965 120.134 94.2278 120.888 93.724C121.643 93.2203 122.231 92.5041 122.578 91.666C122.926 90.828 123.017 89.9057 122.84 89.016C122.663 88.1262 122.226 87.3089 121.585 86.6674C120.943 86.0259 120.126 85.5891 119.236 85.4122C118.346 85.2354 117.424 85.3263 116.586 85.6737C115.748 86.021 115.032 86.6091 114.528 87.3636C114.024 88.118 113.755 89.0049 113.756 89.9121C113.756 91.1279 114.239 92.2938 115.098 93.1535C115.958 94.0131 117.124 94.4961 118.34 94.4961ZM143.99 78.9824C144.897 78.9828 145.784 78.7142 146.539 78.2105C147.293 77.7068 147.881 76.9907 148.228 76.1528C148.576 75.3149 148.667 74.3927 148.49 73.503C148.314 72.6133 147.877 71.796 147.236 71.1544C146.594 70.5129 145.777 70.0759 144.888 69.8988C143.998 69.7217 143.076 69.8124 142.238 70.1594C141.4 70.5065 140.683 71.0943 140.179 71.8485C139.675 72.6027 139.406 73.4894 139.406 74.3965C139.406 75.6124 139.889 76.7786 140.749 77.6385C141.608 78.4985 142.774 78.9819 143.99 78.9824ZM75.6504 49.6074C76.5575 49.6078 77.4443 49.3392 78.1987 48.8355C78.9531 48.3318 79.5412 47.6157 79.8886 46.7778C80.236 45.9399 80.3271 45.0177 80.1504 44.128C79.9737 43.2383 79.5371 42.421 78.8958 41.7794C78.2545 41.1379 77.4374 40.7009 76.5477 40.5238C75.6581 40.3467 74.7359 40.4374 73.8978 40.7844C73.0597 41.1315 72.3434 41.7193 71.8394 42.4735C71.3354 43.2277 71.0664 44.1144 71.0664 45.0215C71.0664 46.2374 71.5493 47.4036 72.4089 48.2635C73.2685 49.1235 74.4345 49.6069 75.6504 49.6074ZM161.344 42.7031C162.251 42.7035 163.138 42.4348 163.892 41.9311C164.647 41.4273 165.235 40.7111 165.582 39.8731C165.93 39.035 166.021 38.1128 165.844 37.223C165.667 36.3332 165.23 35.5159 164.588 34.8744C163.947 34.233 163.13 33.7962 162.24 33.6193C161.35 33.4424 160.428 33.5334 159.59 33.8807C158.752 34.2281 158.036 34.8161 157.532 35.5706C157.028 36.325 156.759 37.212 156.76 38.1191C156.76 39.3349 157.243 40.5008 158.102 41.3605C158.962 42.2202 160.128 42.7031 161.344 42.7031ZM91.9395 86.1855C94.271 86.1852 96.5501 85.4934 98.4886 84.1978C100.427 82.9021 101.938 81.0608 102.83 78.9066C103.722 76.7524 103.955 74.3821 103.5 72.0954C103.045 69.8086 101.922 67.7082 100.273 66.0597C98.6241 64.4111 96.5235 63.2885 94.2367 62.8338C91.9499 62.3791 89.5796 62.6127 87.4256 63.505C85.2715 64.3973 83.4304 65.9084 82.1351 67.847C80.8398 69.7857 80.1484 72.0649 80.1484 74.3965C80.1515 77.5225 81.3949 80.5196 83.6055 82.7299C85.8161 84.9401 88.8134 86.183 91.9395 86.1855ZM91.9395 69.4453C92.9191 69.4457 93.8766 69.7366 94.6909 70.2811C95.5053 70.8257 96.1398 71.5996 96.5143 72.5048C96.8889 73.41 96.9866 74.4059 96.7951 75.3667C96.6036 76.3274 96.1315 77.2098 95.4385 77.9022C94.7455 78.5946 93.8628 79.066 92.9019 79.2568C91.941 79.4475 90.9451 79.349 90.0402 78.9738C89.1353 78.5985 88.362 77.9634 87.818 77.1486C87.2741 76.3339 86.984 75.3761 86.9844 74.3965C86.9859 73.0832 87.5086 71.8241 88.4376 70.8958C89.3667 69.9675 90.6261 69.4458 91.9395 69.4453ZM126.711 102.361C124.379 102.361 122.1 103.053 120.161 104.348C118.223 105.644 116.712 107.485 115.819 109.639C114.927 111.793 114.694 114.163 115.148 116.45C115.603 118.737 116.726 120.838 118.375 122.487C120.024 124.135 122.124 125.258 124.411 125.713C126.698 126.168 129.068 125.934 131.222 125.042C133.377 124.15 135.218 122.639 136.513 120.7C137.809 118.761 138.5 116.482 138.5 114.15C138.497 111.025 137.254 108.028 135.044 105.818C132.833 103.607 129.837 102.364 126.711 102.361ZM126.711 119.104C125.731 119.104 124.774 118.813 123.959 118.269C123.145 117.725 122.51 116.951 122.135 116.046C121.76 115.141 121.662 114.145 121.853 113.184C122.044 112.223 122.516 111.341 123.209 110.648C123.901 109.955 124.784 109.484 125.745 109.292C126.705 109.101 127.701 109.199 128.606 109.574C129.511 109.949 130.285 110.584 130.829 111.399C131.374 112.213 131.664 113.171 131.664 114.15C131.663 115.464 131.141 116.723 130.212 117.652C129.284 118.58 128.024 119.102 126.711 119.104ZM179.865 73.2285C182.197 73.2281 184.476 72.5363 186.415 71.2406C188.353 69.9449 189.864 68.1034 190.756 65.9491C191.648 63.7948 191.881 61.4244 191.425 59.1376C190.97 56.8508 189.847 54.7504 188.198 53.1019C186.549 51.4535 184.448 50.331 182.161 49.8765C179.874 49.422 177.504 49.6559 175.35 50.5485C173.196 51.4412 171.355 52.9525 170.06 54.8914C168.765 56.8303 168.074 59.1098 168.074 61.4414C168.077 64.5673 169.321 67.5642 171.531 69.7741C173.742 71.9841 176.739 73.2264 179.865 73.2285ZM179.865 56.4883C180.845 56.4887 181.802 56.7795 182.617 57.324C183.431 57.8685 184.065 58.6422 184.44 59.5473C184.815 60.4524 184.912 61.4482 184.721 62.4089C184.53 63.3696 184.058 64.252 183.365 64.9445C182.672 65.637 181.79 66.1085 180.829 66.2995C179.868 66.4905 178.872 66.3923 177.967 66.0173C177.062 65.6424 176.289 65.0075 175.745 64.193C175.201 63.3785 174.91 62.421 174.91 61.4414C174.911 60.1277 175.434 58.8682 176.363 57.9395C177.292 57.0108 178.552 56.4888 179.865 56.4883Z" fill="white"/>
</svg>
