<svg width="250" height="250" viewBox="0 0 250 250" fill="none" xmlns="http://www.w3.org/2000/svg">
<path d="M199.444 182.903C199 181.795 198.711 178.283 198.475 175.428C197.965 169.233 197.265 160.747 194.305 153.094C193.025 149.781 190.364 143.495 187.79 137.418C184.935 130.673 181.38 122.278 180.988 120.854C179.485 115.407 177.898 108.916 176.362 102.639C173.709 91.8058 171.205 81.5729 168.969 75.6462C166.935 70.2476 164.834 67.4141 162.167 66.4575C159.499 65.4978 157.266 66.7803 156.533 67.2058C151.741 69.964 152.51 79.5088 154.285 96.1391C154.71 100.116 155.268 105.358 155.416 109.203C153.859 105.85 151.759 100.472 149.303 92.7171C143.113 73.1567 139.703 66.3247 135.276 64.6046C134.054 64.1308 132.138 63.8291 129.944 65.0935C121.745 69.8101 124.597 78.4617 130.279 95.6986C131.32 98.8309 131.39 99.1447 133.412 105.086C134.715 108.922 136.336 113.684 137.163 117.024C133.931 112.661 129.142 104.19 126.085 98.8822C123.671 94.7178 121.628 91.1268 119.874 88.0518C112.496 75.1 110.269 71.1891 106.621 70.1963C104.457 69.6139 102.607 70.4377 101.243 71.2223C99.0495 72.4837 97.6523 74.1947 97.085 76.3131C95.6064 81.8354 99.7526 89.796 110.293 107.989C114.364 115.018 117.837 122.387 119.648 126.974C116.57 124.161 112.318 118.956 109.439 115.431C100.745 104.788 93.8742 96.3866 87.9174 99.8177C85.9016 100.976 84.5346 102.712 83.9642 104.839C83.1887 107.733 83.9069 111.116 86.1007 114.894C87.344 117.042 90.8988 121.696 95.8146 128.135C103.268 137.894 118.034 157.229 120.623 164.124C117.901 162.992 113.018 159.456 109.566 156.957C100.513 150.4 91.1614 143.616 84.8454 147.249C81.8821 148.954 80.0805 151.148 79.4951 153.77C77.6211 162.129 84.8213 161.981 101.31 177.405C108.431 184.046 115.058 190.975 127.44 198.67C138.849 205.759 153.262 207.964 155.03 209.458C156.69 212.325 157.891 215.982 157.906 216.019C159.14 219.812 164.886 217.971 163.645 214.151C163.588 213.976 162.242 209.863 160.254 206.428C157.411 201.525 143.503 201.543 130.626 193.54C119.159 186.412 112.638 179.719 105.432 172.99C99.6259 167.561 88.1648 158.671 85.5787 156.679C85.3451 156.169 85.2796 155.597 85.3916 155.047C85.6632 153.939 86.8823 153.037 87.854 152.479C90.7751 150.798 100.32 157.711 106.023 161.846C114.428 167.935 120.502 172.341 124.902 169.8C125.967 169.188 126.691 168.159 126.942 166.9C128.022 161.52 119.693 149.464 100.61 124.478C96.1888 118.69 92.3714 113.69 91.3183 111.873C90.0177 109.631 89.4624 107.642 89.7944 106.408C89.9264 105.878 90.2569 105.419 90.7178 105.126C93.2194 105.126 100.73 114.321 104.768 119.26C113.109 129.472 119.702 137.529 125.327 134.291C126.021 133.893 126.673 133.015 126.881 132.239C128.203 127.318 115.65 105.198 115.52 104.975C107.568 91.2505 102.01 81.2742 102.921 77.8853C102.988 77.6349 103.126 77.1158 104.261 76.464C104.807 76.1502 105.061 76.0687 105.058 76.0385C106.455 76.6843 109.895 82.7196 114.639 91.0483C116.398 94.1354 118.447 97.7355 120.87 101.918C129.311 116.279 135.355 128.663 141.366 125.211C145.775 122.673 143.418 115.739 139.136 103.152C136.861 96.459 137.41 97.995 136.022 93.8155C130.708 77.6952 129.205 72.4958 133.086 70.2356C138.834 71.8711 147.172 115.745 155.425 118.95C156.551 119.39 157.737 119.306 158.748 118.72C162.384 116.632 161.85 110.096 160.296 95.5145C159.511 88.1695 158.054 74.5025 159.548 72.4505C159.949 72.2212 160.142 72.1729 160.148 72.1578C160.29 72.2272 161.512 72.9696 163.329 77.7918C165.435 83.3775 168.015 93.9061 170.505 104.088C172.053 110.407 173.649 116.94 175.176 122.474C175.644 124.161 178.154 130.139 182.237 139.784C184.793 145.819 187.434 152.059 188.68 155.285C191.326 162.126 191.957 169.785 192.464 175.938C192.684 178.615 192.983 184.647 194.613 186.545L212.782 207.983C213.299 208.593 214.038 208.973 214.835 209.038C215.633 209.104 216.424 208.85 217.034 208.333C217.644 207.815 218.024 207.077 218.09 206.279C218.155 205.482 217.901 204.691 217.384 204.081L199.444 182.903ZM124.325 203.408C109.104 208.2 95.9353 211.281 88.1045 211.93C87.7303 207.705 87.169 203.513 86.4236 199.431C86.2548 198.667 85.7965 197.999 85.1451 197.566C84.4936 197.134 83.6998 196.97 82.9306 197.111C82.1614 197.252 81.4768 197.685 81.0206 198.321C80.5645 198.956 80.3725 199.743 80.4849 200.517C81.363 205.318 81.9756 210.285 82.3076 215.276C82.4162 216.861 83.7349 218.092 85.3222 218.092C93.2375 218.092 108.115 214.839 126.139 209.165C126.873 208.902 127.477 208.364 127.824 207.665C128.171 206.966 128.233 206.159 127.999 205.415C127.764 204.671 127.251 204.046 126.566 203.672C125.881 203.298 125.078 203.203 124.325 203.408Z" fill="white"/>
<path d="M210.887 147.29C203.379 137.703 199.245 132.422 193.825 114.615C191.909 108.311 189.881 99.1098 187.735 89.3688C182.786 66.8963 177.177 41.4273 169.08 32.0454C168.581 31.4673 167.881 31.1 167.122 31.0177C166.362 30.9354 165.6 31.1441 164.988 31.6018C152.83 40.7211 138.376 43.4219 124.398 46.0352C113.754 48.0239 102.746 50.0819 92.7999 54.9434C87.1086 57.7256 79.5886 63.4954 70.8826 70.1735C58.5253 79.655 44.5174 90.4008 32.999 94.5441C32.382 94.7662 31.8542 95.1832 31.4954 95.7321C31.1366 96.2809 30.9663 96.9316 31.0103 97.5859C31.8824 110.471 40.1146 122.119 49.6474 135.605C58.3443 147.911 68.1999 161.856 74.8599 179.92C76.242 183.659 81.9122 181.604 80.524 177.834C73.5895 159.022 63.4864 144.731 54.5752 132.123C46.1529 120.206 38.8079 109.81 37.2659 99.3633C49.1464 94.4566 62.6022 84.1332 74.5551 74.9625C82.6515 68.7491 90.3013 62.8828 95.4494 60.3661C104.656 55.8637 114.784 53.9717 125.502 51.968C139.26 49.3969 153.452 46.7444 166.126 38.1923C172.478 48.1567 177.632 71.5646 181.839 90.6664C184.012 100.528 186.061 109.841 188.049 116.371C193.792 135.258 198.436 141.188 206.131 151.01C207.739 153.066 209.487 155.296 211.418 157.873C209.604 160.465 206.928 163.22 203.433 166.09C202.835 166.603 202.462 167.331 202.393 168.116C202.325 168.902 202.566 169.683 203.066 170.293C203.566 170.902 204.285 171.292 205.069 171.378C205.852 171.465 206.639 171.241 207.26 170.755C212.07 166.808 215.582 162.933 217.695 159.237C217.985 158.729 218.121 158.149 218.087 157.565C218.053 156.982 217.851 156.421 217.505 155.95C215.045 152.601 212.863 149.815 210.887 147.29ZM77.3917 188.131L65.9095 183.541C65.1516 183.237 64.4631 182.782 63.8853 182.205C63.3076 181.628 62.8527 180.94 62.5479 180.182L57.949 168.691C57.723 168.133 57.3358 167.656 56.8368 167.319C56.3379 166.983 55.7499 166.803 55.1481 166.802C54.5463 166.802 53.9581 166.981 53.4588 167.317C52.9594 167.653 52.5717 168.13 52.3452 168.688L47.7432 180.182C47.4384 180.94 46.9835 181.628 46.4057 182.205C45.828 182.782 45.1395 183.237 44.3816 183.541L32.9024 188.131C32.3413 188.354 31.8601 188.74 31.5209 189.24C31.1818 189.739 31.0003 190.329 31 190.933C30.9997 191.537 31.1805 192.127 31.5191 192.627C31.8577 193.127 32.3385 193.514 32.8994 193.738L44.3816 198.327C45.9085 198.937 47.1337 200.162 47.7432 201.686L52.3421 213.177C52.5681 213.735 52.9553 214.213 53.4543 214.549C53.9532 214.886 54.5412 215.065 55.143 215.066C55.7448 215.066 56.333 214.887 56.8323 214.551C57.3317 214.215 57.7194 213.738 57.9459 213.18L62.5479 201.686C62.8527 200.928 63.3076 200.24 63.8853 199.663C64.4631 199.086 65.1516 198.631 65.9095 198.327L77.3887 193.738C77.9498 193.514 78.431 193.128 78.7702 192.628C79.1093 192.129 79.2908 191.539 79.2911 190.935C79.2914 190.331 79.1106 189.741 78.772 189.241C78.4334 188.741 77.9526 188.354 77.3917 188.131ZM63.6704 192.724C62.1538 193.332 60.7761 194.241 59.6201 195.396C58.4641 196.551 57.5538 197.928 56.9441 199.444L55.1455 203.937L53.347 199.447C52.7384 197.93 51.8289 196.553 50.6734 195.397C49.5179 194.242 48.1403 193.332 46.6237 192.724L42.1485 190.934L46.6207 189.145C48.1375 188.537 49.5155 187.628 50.6716 186.473C51.8276 185.318 52.7377 183.941 53.347 182.424L55.1455 177.931L56.9441 182.421C57.5533 183.938 58.4634 185.316 59.6194 186.471C60.7755 187.627 62.1535 188.536 63.6704 189.145L68.1426 190.934L63.6704 192.724ZM183.785 51.9076L191.984 55.1848C192.859 55.5348 193.556 56.2319 193.906 57.104L197.19 65.312C197.416 65.8698 197.803 66.3475 198.302 66.6839C198.801 67.0203 199.389 67.2002 199.991 67.2005C200.592 67.2009 201.181 67.0216 201.68 66.6857C202.179 66.3498 202.567 65.8726 202.793 65.3151L206.08 57.107C206.253 56.6734 206.513 56.2796 206.843 55.9496C207.174 55.6197 207.568 55.3605 208.002 55.1878L216.201 51.9106C216.759 51.6842 217.237 51.2964 217.574 50.7967C217.911 50.297 218.09 49.7082 218.09 49.1057C218.09 48.5032 217.911 47.9144 217.574 47.4147C217.237 46.915 216.759 46.5272 216.201 46.3008L208.002 43.0236C207.569 42.8499 207.175 42.5903 206.845 42.2604C206.514 41.9306 206.254 41.5374 206.08 41.1044L202.797 32.8964C202.571 32.3386 202.183 31.8609 201.684 31.5245C201.185 31.1881 200.597 31.0082 199.996 31.0079C199.394 31.0075 198.806 31.1868 198.306 31.5227C197.807 31.8586 197.419 32.3358 197.193 32.8933L193.906 41.1014C193.733 41.535 193.473 41.9288 193.143 42.2587C192.812 42.5887 192.418 42.8479 191.984 43.0206L183.785 46.2978C183.227 46.5242 182.749 46.912 182.412 47.4117C182.076 47.9114 181.896 48.5002 181.896 49.1027C181.896 49.7052 182.076 50.294 182.412 50.7936C182.749 51.2933 183.227 51.6812 183.785 51.9076ZM194.223 48.6274C198.816 46.7927 199.709 42.6011 199.993 42.1394C200.216 42.5076 201.134 46.7806 205.763 48.6274L206.952 49.1042L205.76 49.581C201.167 51.4157 200.274 55.6072 199.993 56.0689C199.77 55.7008 198.852 51.4278 194.223 49.581L193.034 49.1042L194.223 48.6274ZM32.9024 54.9253L42.743 58.8603C43.941 59.3401 44.9066 60.3027 45.3864 61.5007L49.3275 71.3504C49.552 71.9094 49.9386 72.3885 50.4377 72.726C50.9368 73.0634 51.5254 73.2437 52.1279 73.2437C52.7303 73.2437 53.319 73.0634 53.8181 72.726C54.3172 72.3885 54.7038 71.9094 54.9283 71.3504L58.8693 61.5007C59.3491 60.2997 60.3148 59.3371 61.5128 58.8603L71.3534 54.9253C71.9143 54.7018 72.3954 54.3152 72.7342 53.8154C73.0731 53.3156 73.2543 52.7257 73.2543 52.1219C73.2543 51.518 73.0731 50.9281 72.7342 50.4283C72.3954 49.9285 71.9143 49.5419 71.3534 49.3184L61.5128 45.3864C60.9172 45.1468 60.3761 44.7895 59.9218 44.3358C59.4676 43.882 59.1096 43.3413 58.8693 42.746L54.9283 32.8933C54.7038 32.3343 54.3172 31.8552 53.8181 31.5178C53.319 31.1803 52.7303 31 52.1279 31C51.5254 31 50.9368 31.1803 50.4377 31.5178C49.9386 31.8552 49.552 32.3343 49.3275 32.8933L45.3864 42.743C44.9036 43.944 43.941 44.9066 42.743 45.3864L32.9024 49.3184C32.3414 49.5419 31.8604 49.9285 31.5215 50.4283C31.1827 50.9281 31.0015 51.518 31.0015 52.1219C31.0015 52.7257 31.1827 53.3156 31.5215 53.8154C31.8604 54.3152 32.3414 54.7018 32.9024 54.9253ZM44.9821 50.9902C46.3356 50.4457 47.5652 49.6334 48.5971 48.602C49.6291 47.5706 50.442 46.3414 50.9872 44.9881L52.1279 42.1394L53.2686 44.9881C53.8138 46.3414 54.6267 47.5706 55.6586 48.602C56.6905 49.6334 57.9202 50.4457 59.2737 50.9902L62.1043 52.1219L59.2737 53.2535C57.9202 53.798 56.6905 54.6103 55.6586 55.6417C54.6267 56.6731 53.8138 57.9023 53.2686 59.2556L52.1279 62.1043L50.9872 59.2556C50.442 57.9023 49.6291 56.6731 48.5971 55.6417C47.5652 54.6103 46.3356 53.798 44.9821 53.2535L42.1515 52.1219L44.9821 50.9902Z" fill="white"/>
</svg>
