<svg width="250" height="250" viewBox="0 0 250 250" fill="none" xmlns="http://www.w3.org/2000/svg">
<path d="M101.562 89.8438C69.2539 89.8438 42.9688 116.129 42.9688 148.438C42.9688 180.746 69.2539 207.031 101.562 207.031C133.871 207.031 160.156 180.746 160.156 148.438C160.156 116.129 133.871 89.8438 101.562 89.8438ZM130.246 190.301L126.434 183.695L119.668 187.602L123.469 194.18C117.825 196.898 111.723 198.54 105.477 199.02V187.5H97.6641V199.02C91.4174 198.542 85.3151 196.901 79.6719 194.18L83.4727 187.602L76.707 183.695L72.8945 190.301C67.7303 186.75 63.2617 182.281 59.7109 177.117L66.3164 173.305L62.4102 166.539L55.832 170.34C53.1134 164.696 51.472 158.594 50.9922 152.348H62.5V144.535H50.9805C51.4727 138.129 53.1602 132.066 55.8203 126.543L62.3984 130.344L66.3047 123.578L59.6992 119.766C63.25 114.601 67.7186 110.133 72.8828 106.582L76.6953 113.187L83.4609 109.281L79.6602 102.703C85.3042 99.9845 91.4061 98.3431 97.6523 97.8633V109.375H105.465V97.8555C111.871 98.3477 117.934 100.035 123.457 102.695L119.656 109.273L126.422 113.18L130.234 106.574C135.399 110.125 139.867 114.594 143.418 119.758L136.812 123.57L140.719 130.336L147.297 126.535C150.015 132.179 151.657 138.281 152.137 144.527H140.625V152.34H152.145C151.667 158.587 150.026 164.689 147.305 170.332L140.727 166.531L136.82 173.297L143.426 177.109C139.88 182.278 135.412 186.75 130.246 190.301Z" fill="white"/>
<path d="M105.469 117.188H97.6562V148.437C97.6564 149.112 97.8309 149.774 98.1629 150.361C98.4949 150.947 98.973 151.438 99.5508 151.785L119.082 163.504L123.102 156.805L105.469 146.227V117.188Z" fill="white"/>
<path d="M193.75 4.68752C193.169 4.25377 192.479 3.98998 191.757 3.92561C191.035 3.86123 190.31 3.99881 189.661 4.32296C189.013 4.64712 188.468 5.1451 188.086 5.76131C187.704 6.37751 187.501 7.08768 187.5 7.81252V23.4375H39.0625V31.25H191.406C192.442 31.25 193.436 30.8385 194.168 30.1059C194.901 29.3733 195.312 28.3798 195.312 27.3438V15.625L231.988 43.1289L195.312 73.6914V58.5938C195.312 57.5578 194.901 56.5642 194.168 55.8316C193.436 55.0991 192.442 54.6875 191.406 54.6875H101.562C49.8711 54.6875 7.8125 96.7461 7.8125 148.438C7.8125 200.129 49.8711 242.188 101.562 242.188V238.281L101.645 242.188L102.125 242.184V234.371L101.547 234.375C54.168 234.367 15.625 195.82 15.625 148.438C15.625 101.051 54.1758 62.5 101.562 62.5H187.5V82.0313C187.5 82.7735 187.712 83.5003 188.11 84.1266C188.509 84.7528 189.077 85.2526 189.75 85.5674C190.422 85.8822 191.17 85.9989 191.906 85.904C192.642 85.809 193.336 85.5063 193.906 85.0313L240.781 45.9688C241.232 45.5903 241.592 45.1149 241.834 44.5779C242.076 44.041 242.194 43.4564 242.179 42.8676C242.163 42.2789 242.015 41.7012 241.746 41.1777C241.476 40.6541 241.091 40.1981 240.621 39.8438L193.75 4.68752ZM141.57 233.246C144.039 232.074 146.461 230.797 148.773 229.449L144.836 222.695C142.715 223.934 140.492 225.105 138.223 226.188L141.57 233.246ZM151.109 218.664L155.625 225.043C157.828 223.48 159.996 221.805 162.062 220.059L157.02 214.094C155.125 215.691 153.137 217.227 151.109 218.664ZM184.617 170.598L192.164 172.613C192.866 169.987 193.451 167.331 193.918 164.652L186.219 163.309C185.789 165.762 185.254 168.211 184.617 170.598ZM187.18 155.898L194.961 156.57C195.195 153.875 195.312 151.137 195.312 148.438H187.5C187.5 150.918 187.395 153.426 187.18 155.898ZM172.09 197.555L178.492 202.039C180.031 199.844 181.504 197.527 182.867 195.148L176.094 191.258C174.844 193.434 173.496 195.551 172.09 197.555ZM179.527 184.633L186.613 187.922C187.754 185.461 188.805 182.93 189.723 180.391L182.383 177.719C181.532 180.064 180.58 182.371 179.527 184.633ZM118.355 240.688L116.961 232.996C114.555 233.434 112.063 233.773 109.559 234.008L110.285 241.789C113.012 241.535 115.727 241.164 118.355 240.688ZM131.355 229.074C129.016 229.938 126.625 230.703 124.242 231.355L126.301 238.895C128.92 238.177 131.507 237.347 134.055 236.406L131.355 229.074ZM162.512 209.02L168.051 214.535C169.966 212.606 171.798 210.596 173.543 208.512L167.547 203.5C165.941 205.418 164.25 207.273 162.512 209.02ZM7.8125 23.4375H15.625V31.25H7.8125V23.4375ZM23.4375 23.4375H31.25V31.25H23.4375V23.4375Z" fill="white"/>
</svg>
