<svg width="250" height="250" viewBox="0 0 250 250" fill="none" xmlns="http://www.w3.org/2000/svg">
<g clip-path="url(#clip0_759_170)">
<path d="M241.276 72.2936C240.307 72.2212 239.35 72.536 238.613 73.1689C237.877 73.8018 237.422 74.7011 237.348 75.6693C236.569 85.9681 233.36 95.6779 227.805 104.535C227.312 105.324 226.809 106.107 226.308 106.891L154.466 124.976C166.19 106.873 177.326 87.1063 187.841 65.7051C189.841 61.7517 188.489 57.0999 184.619 54.6334C180.736 52.1586 175.937 52.8881 173.187 56.364C170.098 60.1026 166.892 64.1117 163.385 68.6263C157.047 76.8242 150.503 85.1765 144.173 93.2538C141.103 97.1703 138.035 101.089 134.971 105.01C127.635 114.403 120.122 123.656 112.435 132.764V53.1079C113.858 50.1708 115.242 47.2146 116.584 44.24C130.741 12.8281 168.003 -1.29219 199.673 12.7754L199.871 12.8613C219.926 21.7732 233.764 40.0887 236.886 61.8552C237.173 63.8573 239.034 65.2466 241.031 64.9604C241.507 64.8921 241.965 64.7308 242.379 64.4855C242.793 64.2402 243.154 63.9158 243.442 63.5309C243.731 63.1459 243.94 62.708 244.06 62.242C244.179 61.776 244.205 61.2912 244.136 60.8151C240.654 36.5381 225.218 16.1092 202.818 6.1557L202.62 6.06975C167.304 -9.61662 125.714 6.15619 109.907 41.229C108.478 44.3972 107.002 47.5441 105.479 50.6687C100.583 60.7175 95.2007 70.5218 89.3505 80.0467C80.179 94.9861 69.8725 109.198 58.5222 122.558C48.9018 133.873 43.6977 148.313 43.8696 163.219L44.3535 203.961C32.6504 214.649 20.7734 224.745 8.67133 234.289C5.18618 236.945 4.33308 241.543 6.59841 245.485C8.26114 248.38 11.0749 250.001 14.059 250.001C15.1465 250.001 16.2569 249.786 17.342 249.338C22.8688 247.172 27.8653 244.97 32.2153 242.781C35.9467 240.871 39.629 238.866 43.2587 236.769C44.1 236.283 44.7138 235.483 44.9652 234.545C45.2167 233.607 45.0851 232.607 44.5994 231.766C44.1137 230.924 43.3138 230.311 42.3755 230.059C41.4372 229.808 40.4375 229.939 39.5963 230.425C36.0813 232.456 32.5154 234.398 28.902 236.249C24.7655 238.33 19.9657 240.444 14.6357 242.532L14.5571 242.563C13.7216 242.913 13.1912 242.258 12.9495 241.837C12.7102 241.42 12.4138 240.641 13.1195 240.109L13.1805 240.062C57.966 204.749 99.6917 162.049 140.743 109.522C143.795 105.616 146.865 101.698 149.94 97.7733C156.277 89.6866 162.828 81.3246 169.175 73.1149C172.643 68.6527 175.811 64.6889 178.862 60.9977C178.884 60.9713 178.905 60.945 178.926 60.9181C179.484 60.2056 180.266 60.5455 180.683 60.8117C181.177 61.1261 181.685 61.6579 181.304 62.4055L181.279 62.4553C145.048 136.2 101.509 190.161 51.8722 222.841C51.4656 223.104 51.115 223.444 50.8407 223.842C50.5663 224.241 50.3737 224.69 50.2738 225.163C50.174 225.637 50.169 226.125 50.259 226.601C50.349 227.076 50.5324 227.529 50.7985 227.933C51.0645 228.337 51.408 228.685 51.8091 228.955C52.2102 229.226 52.6609 229.414 53.1353 229.51C53.6096 229.605 54.0982 229.605 54.5727 229.511C55.0472 229.416 55.4983 229.229 55.8999 228.959C59.0374 226.893 62.1504 224.745 65.2391 222.515L101.673 224.998C103.114 225.096 104.55 225.145 105.981 225.145C120.589 225.145 134.555 220.055 145.698 210.59C155.926 201.902 165.75 192.75 175.14 183.162C196.265 161.596 215.295 137.677 231.699 112.069C232.479 110.859 233.251 109.643 234.015 108.423C240.205 98.5531 243.784 87.7197 244.653 76.2231C244.726 75.2543 244.411 74.2961 243.778 73.5593C243.145 72.8225 242.245 72.3672 241.276 72.2936ZM96.1362 82.981C99.2604 77.8596 102.253 72.6589 105.11 67.384V141.325C102.146 144.744 99.155 148.14 96.1362 151.511V82.981ZM51.5983 197.244L51.1935 163.132C51.0416 149.995 55.6265 137.27 64.1023 127.301C72.9755 116.856 81.2263 105.899 88.8119 94.4844V159.579C76.5603 172.888 64.175 185.418 51.5983 197.244ZM140.954 205.006C130.183 214.157 116.414 218.661 102.169 217.69L74.169 215.781C82.8011 208.999 91.2339 201.562 99.4597 193.474L162.338 185.569C155.429 192.285 148.297 198.768 140.954 205.006ZM170.786 177.125L107.725 185.053C121.96 170.04 135.546 153.021 148.448 134.045L220.394 115.934C205.701 137.826 189.048 158.372 170.786 177.125Z" fill="white"/>
</g>
<defs>
<clipPath id="clip0_759_170">
<rect width="250" height="250" fill="white"/>
</clipPath>
</defs>
</svg>
