<svg width="168" height="141" viewBox="0 0 168 141" fill="none" xmlns="http://www.w3.org/2000/svg">
<path fill-rule="evenodd" clip-rule="evenodd" d="M66.8 57.6H101.1L83.8 29.1L66.8 57.6ZM47.7 57.6H59.6L80.2 23.2L74.4 13.6L47.7 57.6ZM30.6 118.2L47.5 90.3L64.4 118.2H30.6ZM74.2 134.3H20.8L27 124.1H68.1L74.2 134.3ZM137.9 118.7H103.5L120.8 90.2L137.9 118.7ZM157 118.7H145.1L124.5 84.3L130.3 74.7L157 118.7ZM66.7 79.3H101.1L83.8 107.8L66.7 79.3ZM0 124.5L74.4 0L114.6 67.6L88 113.5L91 118.5H96.4L126.4 68L85.8 0.200012H93.7L167.6 125H86.5L59.6 79.5H54.2L51.6 83.9L81.6 134.4H161.8L158.1 141H9.89999L50.5 72.9H104.4L107.5 67.9L104.7 63.6H44.4L4.30002 131.1L0 124.5Z" fill="#E2000F"/>
</svg>
