<svg width="236" height="236" viewBox="0 0 236 236" fill="none" xmlns="http://www.w3.org/2000/svg">
<path fill-rule="evenodd" clip-rule="evenodd" d="M33.119 170.754L48.5227 128.302L84.1822 115.966C87.4733 114.828 89.8319 115.52 90.875 117.909L91.2935 119.296C91.6858 121.558 90.851 124.278 87.246 125.618L65.2754 133.804C64.9539 133.924 64.6632 134.115 64.4246 134.362C64.186 134.608 64.0055 134.905 63.8963 135.231L55.4035 159.851C54.7716 161.717 56.6448 163.463 58.4646 162.713C65.6082 159.764 71.5382 163.287 76.6763 167.003C83.098 171.645 86.4583 180.933 86.0443 192.685H76.4555C76.9086 182.862 73.34 178.444 70.1185 176.456C63.2916 172.252 51.9765 174.999 37.3965 184.401C37.0112 184.648 36.7091 185.006 36.5295 185.427L25.3753 211.167H15.9768L33.119 170.754ZM11.6016 215.78H69.782V226.32H11.6016V215.78ZM74.3914 197.295V226.32H132.566V197.295H74.3914ZM182.864 30.6224V9.67969H224.399L216.217 17.8613C214.953 19.1252 214.957 21.1801 216.217 22.4407L224.399 30.6224H182.864ZM195.356 226.32H137.175V169.265H195.356V226.32H195.356ZM185.773 57.2761C184.796 54.5423 182.79 52.6994 181.782 52.1878L179.285 54.9327V9.67969H174.675V59.9989L150.703 86.347C150.204 86.9024 139.14 94.1165 137.502 95.2292C136.966 95.5934 101.869 109.363 98.0707 110.865C95.8116 111.758 94.9165 114.303 95.2894 116.53L95.7056 117.885C96.8589 120.419 99.6425 121.085 103.422 119.686L131.927 109.137C133.459 108.566 135.084 109.738 135.027 111.376L134.461 128.352C134.449 128.724 134.346 129.088 134.162 129.412L98.255 192.686H108.326L134.58 148.684C134.617 148.625 134.656 148.569 134.691 148.515C139.591 141.733 152.286 141.139 158.32 141.774C158.885 141.835 159.409 142.102 159.789 142.525C160.169 142.948 160.379 143.497 160.379 144.066V164.656H170.723V135.63C170.723 134.296 169.379 131.643 167.215 129.908C165.23 128.317 162.482 127.578 161.006 127.578H158.725C158.114 127.578 157.528 127.335 157.095 126.903C156.663 126.471 156.42 125.885 156.42 125.274V96.5258C156.421 95.9508 156.636 95.3965 157.023 94.9716L174.675 75.6232V164.656H179.285V70.5714L184.08 65.3153C186.257 62.9327 186.822 60.227 185.773 57.2761ZM133.478 80.3331C125.108 80.3331 118.296 73.5191 118.296 65.1507C118.296 56.7737 125.108 49.9615 133.478 49.9615C141.849 49.9615 148.661 56.7732 148.661 65.1507C148.661 73.5191 141.849 80.3331 133.478 80.3331ZM68.4038 112.851C76.7744 112.851 83.5866 106.039 83.5866 97.668C83.5866 89.2974 76.7744 82.4857 68.4038 82.4857C60.0286 82.4857 53.221 89.2974 53.221 97.668C53.221 106.039 60.0286 112.851 68.4038 112.851Z" fill="white"/>
</svg>
