<svg width="512" height="512" viewBox="0 0 512 512" fill="none" xmlns="http://www.w3.org/2000/svg">
<g clip-path="url(#clip0_228_3)">
<path d="M389.257 338.698C372.53 322.184 351.647 322.184 335.027 338.698C322.348 351.27 309.67 363.842 297.204 376.627C293.795 380.143 290.918 380.889 286.763 378.545C278.559 374.07 269.823 370.448 261.939 365.547C225.182 342.427 194.391 312.702 167.116 279.248C153.585 262.627 141.546 244.834 133.129 224.804C131.424 220.756 131.744 218.092 135.047 214.789C147.725 202.537 160.084 189.965 172.55 177.393C189.916 159.92 189.916 139.464 172.443 121.884C162.535 111.869 152.626 102.068 142.718 92.0526C132.49 81.8245 122.368 71.4899 112.034 61.3684C95.3064 45.0674 74.4241 45.0674 57.8035 61.4749C45.0184 74.047 32.766 86.9386 19.7679 99.2975C7.72858 110.698 1.65566 124.655 0.377151 140.956C-1.64715 167.485 4.85193 192.522 14.0146 216.92C32.766 267.421 61.3194 312.276 95.9457 353.401C142.718 409.016 198.546 453.018 263.856 484.768C293.262 499.044 323.733 510.018 356.868 511.83C379.668 513.108 399.485 507.355 415.36 489.562C426.227 477.416 438.479 466.336 449.986 454.723C467.033 437.463 467.139 416.581 450.199 399.534C429.956 379.184 409.606 358.941 389.257 338.698ZM368.907 253.784L408.221 247.072C402.042 210.954 384.995 178.245 359.105 152.249C331.724 124.868 297.098 107.608 258.955 102.281L253.415 141.808C282.928 145.963 309.776 159.281 330.978 180.483C351.008 200.513 364.113 225.87 368.907 253.784ZM430.382 82.89C384.995 37.5029 327.569 8.84302 264.176 0L258.636 39.5272C313.399 47.1983 363.047 72.0226 402.255 111.124C439.438 148.307 463.836 195.292 472.679 246.965L511.994 240.253C501.659 180.376 473.425 126.04 430.382 82.89Z" fill="black"/>
</g>
<defs>
<clipPath id="clip0_228_3">
<rect width="512" height="512" fill="white"/>
</clipPath>
</defs>
</svg>
