<svg width="250" height="250" viewBox="0 0 250 250" fill="none" xmlns="http://www.w3.org/2000/svg">
<g clip-path="url(#clip0_759_9)">
<path d="M115.7 187.93C111.173 181.871 106.22 176.021 101.427 170.36C94.7183 162.435 87.7808 154.241 82.0366 145.471C80.0737 142.475 78.1802 139.306 76.3486 136.243L76.3047 136.17C71.1582 127.555 65.8364 118.647 58.0908 111.845C56.3413 110.308 54.7354 108.69 53.1729 107.114C51.2998 105.225 49.3638 103.272 47.1196 101.4C45.0781 99.6956 43.4707 98.0574 42.0625 96.2439C42.0225 96.1912 37.9375 90.991 33.6602 91.2737L30.7227 91.4631L31.7222 94.2317C32.7661 97.1223 34.7651 99.8215 36.6997 102.433L36.7358 102.482C37.5176 103.538 38.2559 104.535 38.8838 105.489L39.3359 106.175C42.9912 111.721 46.665 117.258 50.3521 122.815C60.7832 138.534 71.5693 154.79 81.7432 171.036L82.1118 171.626C87.5386 180.294 93.1499 189.258 101.534 195.53C102.59 196.32 103.685 197.063 104.761 197.792C107.238 199.47 109.577 201.055 111.356 203.144C113.36 205.494 114.675 208.566 115.949 211.542L116.183 212.088C121.677 224.877 128.179 237.21 135.626 248.969C136.043 249.628 136.74 250 137.479 250C137.701 250 137.928 249.967 138.151 249.898C138.617 249.757 139.024 249.464 139.305 249.066C139.586 248.668 139.726 248.188 139.704 247.701C138.96 228.369 130.884 208.259 115.7 187.93ZM134.282 238.233C129.047 229.227 124.36 219.913 120.248 210.342L120.016 209.8C118.614 206.525 117.164 203.138 114.723 200.274C112.555 197.731 109.855 195.901 107.242 194.13C106.223 193.44 105.168 192.726 104.183 191.988C96.458 186.208 91.0698 177.599 85.8584 169.274L85.4917 168.688C75.3057 152.422 64.523 136.171 54.0952 120.455L54.0249 120.349C50.3508 114.818 46.6856 109.282 43.0293 103.74L42.978 103.662C43.397 104.038 43.8325 104.415 44.2871 104.794C46.3667 106.53 48.1475 108.325 50.0332 110.227C51.6401 111.848 53.3018 113.523 55.1733 115.168C62.3984 121.512 67.5381 130.116 72.5093 138.437C74.3755 141.561 76.3057 144.792 78.3374 147.895C84.2305 156.892 91.2578 165.193 98.0552 173.221C102.801 178.826 107.708 184.622 112.157 190.577C124.247 206.763 131.675 222.771 134.282 238.233ZM182.866 233.864C180.647 230.968 180.188 227.94 179.654 224.419C179.301 222.093 178.936 219.689 178.042 217.079C177.231 214.709 175.393 212.363 173.607 210.084C172.062 208.114 170.465 206.076 169.89 204.418C167.729 198.191 164.579 192.332 161.497 186.929C155.366 176.185 148.68 165.767 141.464 155.719C134.191 145.596 126.279 135.729 118.605 126.158C116.955 124.1 115.248 121.971 113.076 120.198C111.378 118.812 109.52 117.747 107.713 116.713C105.975 115.718 104.334 114.777 102.908 113.602C100.044 111.243 97.9683 107.817 95.9595 104.502C95.5557 103.836 95.1528 103.172 94.7437 102.513C91.4727 97.2532 87.6797 92.301 84.0073 87.5056L72.0688 71.9182C68.772 67.613 65.3623 63.1619 61.5796 59.0691C55.8057 52.824 48.9258 45.8572 41.6758 41.5325C41.3022 41.309 40.871 41.201 40.4362 41.2221C40.0015 41.2431 39.5827 41.3922 39.2324 41.6506C38.8815 41.9082 38.6146 42.2638 38.4652 42.6726C38.3159 43.0815 38.2908 43.5254 38.3931 43.9485C38.8984 46.0505 40.3364 47.8142 41.6108 49.3772C41.9316 49.7708 42.2432 50.1521 42.52 50.5203L61.2319 75.4216C63.8003 78.8396 66.4561 82.3738 68.2944 86.2029C68.9951 87.6614 69.6099 89.2361 70.209 90.7698C71.0913 93.0291 72.0034 95.366 73.269 97.5769C74.6909 100.061 76.4663 102.234 78.1831 104.336L78.2153 104.375C83.1992 110.478 88.3525 116.788 93.3355 123.089C105.096 137.959 116.487 153.516 127.517 168.579L166.594 221.945C170.449 227.21 174.436 232.654 179.72 236.928C180.114 237.247 180.605 237.421 181.111 237.421C181.692 237.421 182.241 237.197 182.655 236.793C183.042 236.415 183.277 235.908 183.316 235.369C183.355 234.829 183.195 234.294 182.866 233.864ZM51.2354 54.759C53.7773 57.2087 56.1665 59.7317 58.3311 62.073C61.9736 66.0129 65.3203 70.3826 68.5566 74.6086L80.4951 90.1956C84.0986 94.8992 87.8242 99.7629 90.9878 104.85C91.3608 105.449 91.7285 106.056 92.0967 106.663L92.1777 106.797C94.3774 110.427 96.6519 114.179 100.095 117.016C101.812 118.431 103.697 119.51 105.52 120.554C107.239 121.538 108.862 122.469 110.278 123.624C112.091 125.104 113.65 127.05 115.17 128.945C122.788 138.445 130.665 148.269 137.873 158.302C144.998 168.224 151.601 178.511 157.655 189.122C160.632 194.342 163.669 199.983 165.711 205.869C166.527 208.222 168.355 210.555 170.126 212.814C171.68 214.797 173.287 216.847 173.858 218.514C174.623 220.746 174.958 222.948 175.284 225.096C175.345 225.499 175.406 225.905 175.471 226.313C173.611 224.043 171.866 221.659 170.162 219.332L131.084 165.968C120.044 150.889 108.629 135.299 96.8047 120.347C91.8076 114.029 86.6504 107.714 81.6631 101.606L81.6084 101.539C80.0044 99.5754 78.3452 97.5447 77.1074 95.3816C76.0039 93.4534 75.1899 91.3689 74.3286 89.1619C73.7031 87.5603 73.0562 85.9041 72.2812 84.2903C70.2529 80.0662 67.4639 76.3547 64.7666 72.7654L51.2354 54.759ZM203.996 179.297C194.183 149.102 171.933 122.85 150.411 97.4568C144.69 90.7078 139.286 84.3333 134.076 77.843L111.247 49.4036C109.473 47.1936 107.639 44.9089 105.359 42.9705C103.761 41.6116 102.029 40.4973 100.354 39.4202L100.304 39.3884C99.709 39.0056 99.1138 38.6233 98.5269 38.2292C93.3164 34.7361 88.6138 30.2991 84.0615 26.0037C83.1074 25.1038 82.1543 24.2039 81.1953 23.3113C78.3921 20.7024 75.3521 17.949 72.1172 15.4905C71.8633 15.2981 71.5478 15.0471 71.1865 14.759L71.1421 14.7239C67.0244 11.4431 63.3818 8.79663 60.4834 9.64965C59.9475 9.80877 59.4915 10.1643 59.2065 10.6452C58.9215 11.1262 58.8285 11.6969 58.9463 12.2434C60.4819 19.2668 66.7104 26.0774 71.7148 31.5496L71.8765 31.7263C72.5239 32.4348 73.146 33.116 73.728 33.7673C75.228 35.446 76.773 37.1277 78.2671 38.7537L78.3174 38.8083C82.4463 43.301 86.7153 47.947 90.376 52.8958C93.0894 56.5642 95.563 60.5388 97.9565 64.3845C101 69.2722 104.146 74.3259 107.872 78.9241C110.486 82.1516 113.397 85.1672 116.222 88.0935C120.487 92.511 124.897 97.0784 128.117 102.278C129.21 104.045 130.208 105.954 131.174 107.801L132.032 107.352L131.205 107.861C131.996 109.376 132.814 110.942 133.7 112.465C136.64 117.516 140.329 122.097 143.591 126.147C153.56 138.526 164.378 151.68 175.937 164.005C176.386 164.485 176.836 164.963 177.287 165.442L177.437 165.601C180.087 168.412 182.828 171.319 185.245 174.354C190.604 181.081 194.677 188.773 198.389 196.074C198.807 196.895 199.585 197.385 200.471 197.385C200.773 197.386 201.071 197.327 201.349 197.211C202.475 196.746 203.271 195.906 204.036 188.75C204.318 186.133 204.686 181.421 203.996 179.297ZM199.589 188.773C196.633 183.206 193.08 177.091 188.706 171.599C186.17 168.417 183.364 165.441 180.65 162.563L179.163 160.982C167.705 148.765 156.95 135.687 147.035 123.374C143.877 119.454 140.298 115.01 137.523 110.241C136.677 108.787 135.882 107.265 135.113 105.793C134.107 103.867 133.067 101.875 131.876 99.9509C128.407 94.3469 123.83 89.6067 119.403 85.0212C116.651 82.1702 113.805 79.2224 111.309 76.1409C107.755 71.7551 104.683 66.8196 101.711 62.0466C99.2734 58.1296 96.7524 54.0793 93.9326 50.2668C90.1367 45.1345 85.7886 40.4026 81.5742 35.8157C80.1548 34.2717 78.5459 32.5212 77.0264 30.8201C76.3484 30.0646 75.6661 29.3132 74.9795 28.5657C71.4756 24.7346 67.2539 20.1184 64.8774 15.5471C66.2837 16.5081 67.689 17.6277 68.3857 18.1829C68.7979 18.511 69.1562 18.7961 69.4419 19.0134C72.5234 21.3547 75.4629 24.0188 78.1812 26.5491C79.1318 27.4338 80.0786 28.3269 81.0254 29.2209C85.7046 33.637 90.543 38.2034 96.063 41.9036C96.6841 42.3201 97.3145 42.7253 97.9614 43.1409C99.5864 44.1858 101.121 45.1726 102.493 46.3396C104.453 48.0061 106.154 50.1257 107.799 52.175L130.626 80.6116C135.867 87.1414 141.293 93.5413 147.037 100.317C168.279 125.379 190.245 151.294 199.79 180.664C200.145 181.757 199.986 185.332 199.589 188.773ZM209.475 125.436L191.109 92.4949C186.776 84.7224 182.295 76.6853 176.576 69.5349C172.899 64.9382 168.728 60.7341 164.676 56.6501L141.267 33.0676C135.762 27.5212 130.07 21.7864 122.872 17.9685C120.912 16.929 118.877 16.0564 116.889 15.2043C114.195 14.0496 111.65 12.9582 109.315 11.4871C108.779 11.1497 107.469 10.0198 106.082 8.82348C98.9282 2.65551 93.6006 -1.54908 90.1548 0.543209C89.0869 1.19165 88.4468 2.27905 88.3989 3.5271C88.2007 8.69506 99.4766 17.3655 99.5928 17.4499C101.699 18.9612 103.878 20.4338 105.994 21.8625C112.131 26.0081 118.477 30.2952 123.324 35.821C125.33 38.1082 127.145 40.6863 128.901 43.1794C129.978 44.7092 131.092 46.2913 132.262 47.8264C137.118 54.1951 142.954 59.7703 148.606 65.1697C149.809 66.3186 151.012 67.467 152.206 68.6233C165.954 81.9416 176.815 94.7039 185.41 107.638C188.694 112.581 191.791 117.773 194.787 122.799L215.081 156.827C215.277 157.155 215.556 157.427 215.889 157.616C216.221 157.805 216.597 157.905 216.98 157.906C217.147 157.906 217.316 157.886 217.48 157.848C217.938 157.743 218.349 157.495 218.656 157.139C218.962 156.784 219.147 156.34 219.184 155.872C220.104 144.498 214.21 133.928 209.475 125.436ZM213.911 146.229L198.557 120.482C195.544 115.43 192.428 110.207 189.094 105.189C180.32 91.9866 169.26 78.9861 155.282 65.4456C154.153 64.3528 153.019 63.2645 151.881 62.1804L151.66 61.97C146.139 56.6965 140.429 51.2434 135.779 45.1443C134.67 43.6887 133.585 42.1492 132.513 40.6272C130.691 38.0408 128.807 35.3655 126.648 32.9041C121.424 26.948 114.836 22.4978 108.461 18.1916L108.398 18.1487C106.336 16.7556 104.205 15.3147 102.171 13.8557C99.7759 12.1365 94.6787 7.18286 93.2168 4.73462C93.8081 4.99438 94.6904 5.47046 95.9546 6.3435C98.3521 7.99829 101.034 10.3098 103.193 12.1721C104.84 13.5925 106.143 14.7151 106.957 15.2283C109.583 16.8835 112.407 18.0945 115.153 19.2717C117.04 20.0803 118.991 20.9163 120.799 21.8748C127.402 25.3777 132.854 30.8699 138.129 36.1853L161.542 59.7732C165.499 63.759 169.589 67.8806 173.121 72.2966C178.613 79.1643 183.002 87.0374 187.247 94.6516L205.612 127.592C208.628 132.999 212.234 139.468 213.911 146.229Z" fill="white"/>
</g>
<defs>
<clipPath id="clip0_759_9">
<rect width="250" height="250" fill="white"/>
</clipPath>
</defs>
</svg>
