<svg width="250" height="250" viewBox="0 0 250 250" fill="none" xmlns="http://www.w3.org/2000/svg">
<path d="M214.844 178.56H35.1563C34.7073 178.559 34.2628 178.648 33.8479 178.819C33.4331 178.991 33.0562 179.243 32.7388 179.56C32.4214 179.878 32.1696 180.254 31.9979 180.669C31.8263 181.084 31.738 181.529 31.7383 181.978V194.124C31.7383 195.031 32.0984 195.9 32.7394 196.541C33.3804 197.182 34.2497 197.542 35.1563 197.542H214.844C215.75 197.542 216.62 197.182 217.261 196.541C217.902 195.9 218.262 195.031 218.262 194.124V181.978C218.262 181.529 218.174 181.084 218.002 180.669C217.83 180.254 217.579 179.878 217.261 179.56C216.944 179.243 216.567 178.991 216.152 178.819C215.737 178.648 215.293 178.559 214.844 178.56ZM211.426 185.396V190.706H38.5742V185.396H211.426ZM214.844 211.425H35.1563C34.2497 211.425 33.3804 211.785 32.7394 212.426C32.0984 213.067 31.7383 213.936 31.7383 214.843C31.7383 215.749 32.0984 216.619 32.7394 217.26C33.3804 217.901 34.2497 218.261 35.1563 218.261H214.844C215.75 218.261 216.62 217.901 217.261 217.26C217.902 216.619 218.262 215.749 218.262 214.843C218.262 213.936 217.902 213.067 217.261 212.426C216.62 211.785 215.75 211.425 214.844 211.425ZM75.75 54.7412C64.3442 67.3601 58.2231 83.879 58.652 100.883C59.081 117.887 66.0271 134.077 78.0546 146.105C90.0821 158.132 106.271 165.079 123.276 165.508C140.28 165.937 156.799 159.817 169.418 148.411L186.586 165.579C186.904 165.897 187.281 166.148 187.696 166.32C188.111 166.492 188.555 166.58 189.004 166.58C189.453 166.58 189.898 166.491 190.313 166.319C190.728 166.147 191.104 165.895 191.422 165.577C191.739 165.26 191.991 164.882 192.163 164.467C192.334 164.053 192.423 163.608 192.422 163.159C192.422 162.71 192.334 162.265 192.162 161.85C191.99 161.435 191.738 161.059 191.42 160.741L174.25 143.571C185.643 130.95 191.753 114.436 191.319 97.4386C190.884 80.4416 183.938 64.2607 171.915 52.2383C159.892 40.2159 143.711 33.2705 126.714 32.8367C109.717 32.4029 93.2026 38.5138 80.582 49.9072L63.4141 32.7393C63.0988 32.4128 62.7217 32.1523 62.3048 31.9731C61.8878 31.7939 61.4393 31.6995 60.9855 31.6954C60.5316 31.6914 60.0815 31.7778 59.6615 31.9496C59.2414 32.1213 58.8597 32.3751 58.5387 32.6959C58.2177 33.0168 57.9638 33.3984 57.7919 33.8184C57.62 34.2384 57.5334 34.6885 57.5372 35.1423C57.5411 35.5961 57.6353 36.0447 57.8143 36.4617C57.9934 36.8787 58.2537 37.2559 58.5801 37.5713L75.75 54.7412ZM125 158.681C113.518 158.689 102.28 155.373 92.6408 149.135C83.0018 142.897 75.3743 134.002 70.679 123.524C65.9836 113.047 64.4212 101.434 66.1802 90.0878C67.9392 78.7417 72.9444 68.1472 80.5918 59.583L86.9316 65.9229C81.9316 70.8486 76.4297 82.8428 87.1699 98.1045C97.8516 113.28 85.3066 126.171 84.7754 126.702C84.4478 127.016 84.186 127.392 84.0052 127.808C83.8244 128.224 83.7282 128.672 83.7223 129.126C83.7164 129.579 83.8009 130.03 83.9708 130.45C84.1407 130.871 84.3926 131.254 84.7119 131.576C85.0312 131.898 85.4115 132.154 85.8305 132.327C86.2496 132.501 86.6991 132.59 87.1527 132.588C87.6064 132.586 88.0552 132.494 88.4729 132.318C88.8907 132.141 89.269 131.882 89.5859 131.558C95.5957 125.608 103.992 110.134 92.7617 94.1729C83.3398 80.7822 89.8047 72.7276 91.7695 70.7608L125.934 104.927C129.615 116.96 120.576 126.251 120.129 126.702C119.801 127.016 119.54 127.392 119.359 127.808C119.178 128.224 119.082 128.672 119.076 129.126C119.07 129.579 119.154 130.03 119.324 130.45C119.494 130.871 119.746 131.254 120.065 131.576C120.385 131.898 120.765 132.154 121.184 132.327C121.603 132.501 122.053 132.59 122.506 132.588C122.96 132.586 123.409 132.494 123.826 132.318C124.244 132.141 124.623 131.882 124.939 131.558C129.928 126.417 132.979 119.704 133.572 112.565L164.574 143.567C153.695 153.308 139.603 158.69 125 158.681ZM125 39.6475C136.48 39.6411 147.716 42.957 157.353 49.1948C166.99 55.4327 174.616 64.3261 179.311 74.8019C184.006 85.2777 185.57 96.8883 183.812 108.233C182.055 119.577 177.052 130.171 169.408 138.735L161.236 130.562C167.115 124.013 174.127 109.313 163.469 94.1729C153.17 79.5361 161.855 71.2705 162.883 70.3643C163.553 69.7719 163.964 68.9407 164.028 68.0487C164.092 67.1568 163.804 66.2753 163.226 65.5932C162.647 64.9112 161.825 64.4829 160.935 64.4003C160.044 64.3177 159.157 64.5874 158.463 65.1514C153.297 69.5029 146.525 81.9893 157.867 98.1045C166.986 111.065 159.174 122.353 156.367 125.704L131.877 101.202C130.925 98.7091 129.661 96.3465 128.115 94.1709C117.818 79.5401 126.498 71.2744 127.541 70.3643C128.233 69.7779 128.663 68.9408 128.737 68.0372C128.812 67.1336 128.524 66.2374 127.937 65.5459C127.351 64.8544 126.514 64.4241 125.61 64.3498C124.707 64.2754 123.811 64.563 123.119 65.1494C120.273 67.7954 118.201 71.1668 117.127 74.9014C116.053 78.6361 116.016 82.5928 117.021 86.3467L85.4258 54.751C96.3062 45.0133 110.398 39.635 125 39.6475Z" fill="white"/>
</svg>
