<svg width="30" height="30" viewBox="0 0 30 30" fill="none" xmlns="http://www.w3.org/2000/svg">
<g clip-path="url(#clip0_767_176)">
<path d="M29.2046 10.7303L19.9821 9.32156L15.8484 0.516563C15.5396 -0.140938 14.4609 -0.140938 14.1521 0.516563L10.0196 9.32156L0.797101 10.7303C0.626822 10.7565 0.467044 10.829 0.335309 10.9401C0.203575 11.0511 0.104978 11.1963 0.0503442 11.3596C-0.00428933 11.523 -0.0128467 11.6983 0.0256118 11.8662C0.0640702 12.0342 0.148057 12.1882 0.268351 12.3116L6.96835 19.1791L5.3846 28.8878C5.35632 29.0614 5.37747 29.2395 5.44562 29.4017C5.51377 29.5639 5.62619 29.7036 5.77001 29.8049C5.91382 29.9063 6.08325 29.9651 6.25891 29.9746C6.43457 29.9842 6.60938 29.9442 6.76335 29.8591L15.0009 25.3066L23.2384 29.8603C23.3923 29.9454 23.5671 29.9854 23.7428 29.9759C23.9185 29.9663 24.0879 29.9075 24.2317 29.8062C24.3755 29.7049 24.4879 29.5651 24.5561 29.403C24.6242 29.2408 24.6454 29.0627 24.6171 28.8891L23.0334 19.1803L29.7334 12.3128C29.854 12.1895 29.9383 12.0353 29.977 11.8672C30.0156 11.6991 30.0072 11.5236 29.9525 11.36C29.8978 11.1964 29.7991 11.051 29.6671 10.9399C29.5352 10.8288 29.3751 10.7563 29.2046 10.7303Z" fill="#FFC107"/>
</g>
<defs>
<clipPath id="clip0_767_176">
<rect width="30" height="30" fill="white"/>
</clipPath>
</defs>
</svg>
