<svg width="236" height="236" viewBox="0 0 236 236" fill="none" xmlns="http://www.w3.org/2000/svg">
<path d="M102.927 218.024H86.3336C83.1992 218.024 80.6641 215.489 80.6641 212.354V206.685H108.643V212.354C108.597 215.489 106.062 218.024 102.927 218.024ZM124.776 193.548C124.776 190.414 122.241 187.879 119.106 187.879H70.0625C66.9281 187.925 64.4391 190.414 64.4391 193.548C64.4391 196.682 66.9742 199.218 70.1086 199.218H119.106C122.241 199.264 124.776 196.682 124.776 193.548ZM70.0625 169.072C62.5031 169.211 62.6414 180.319 70.1086 180.457H119.106C122.148 180.457 124.822 177.876 124.776 174.788C124.776 171.654 122.241 169.118 119.106 169.118H70.0625V169.072ZM171.515 132.474L161.512 130.492L160.775 130.354C160.36 132.566 158.24 143.444 157.825 145.426L171.515 132.474ZM129.523 120.213C134.317 126.528 145.011 140.771 149.897 147.224L154.23 125.283C154.322 124.822 154.552 124.315 154.783 123.9C154.829 123.9 154.829 123.854 154.829 123.854C162.573 112.838 174.511 95.7371 182.163 84.9512L129.523 120.213ZM93.5242 109.519L123.393 115.419L194.516 67.7121C195.991 66.8363 198.019 66.9746 199.217 68.2191C199.217 68.2191 199.217 68.2652 199.263 68.2652C200.554 69.4637 200.692 71.5379 199.678 72.9207C187.832 89.7449 175.986 106.661 164.14 123.486C173.773 125.375 191.566 128.879 201.384 130.814L230.33 36.9676C167.92 69.9707 143.72 83.7988 93.5242 109.519ZM117.17 161.651C117.723 150.589 122.102 140.171 129.477 132.52L123.301 124.315L122.056 122.656L81.6781 114.728C78.3133 114.175 77.6219 109.243 80.7102 107.814C102.789 96.3363 125.145 84.7207 147.177 73.1973C139.618 49.1363 116.295 33.0957 91.0813 34.709C43.5586 37.8434 21.8484 97.2582 56.9258 129.846C66.1445 138.466 71.4914 149.713 72.0445 161.651H117.17ZM39.9172 138.881L31.6664 147.132C29.3156 149.344 31.1133 153.585 34.2938 153.446C35.2617 153.446 36.1836 153.078 36.9211 152.34L45.1719 144.136C48.5828 140.632 43.4203 135.516 39.9172 138.881ZM146.716 41.0699C147.684 41.0699 148.606 40.7012 149.344 39.9637L157.595 31.7129C161.005 28.2098 155.843 23.0934 152.34 26.4582L144.089 34.709C141.692 36.9215 143.536 41.1621 146.716 41.0699ZM20.9727 85.7348H9.31094C4.425 85.827 4.425 93.0637 9.31094 93.1559H20.9727C25.8586 93.0637 25.8586 85.827 20.9727 85.7348ZM39.9172 39.9637C40.6547 40.7012 41.5766 41.0699 42.5445 41.0699C45.725 41.1621 47.5227 36.9215 45.1719 34.7551L36.9211 26.5043C35.4922 25.0754 33.1414 25.0754 31.6664 26.5043C30.2375 27.9332 30.2375 30.284 31.6664 31.759L39.9172 39.9637ZM94.6305 19.498C96.6586 19.498 98.318 17.8387 98.318 15.8105V4.14883C98.2258 -0.737109 90.9891 -0.737109 90.8969 4.14883V15.8105C90.8969 17.8387 92.5563 19.498 94.6305 19.498ZM161.144 206.731C161.144 205.486 161.835 204.611 163.264 203.043C164.923 201.154 167.228 198.526 167.413 194.286C167.643 189.307 164.416 186.219 161.559 183.5C154.23 177.277 152.34 169.211 155.52 158.425C156.073 156.443 154.921 154.414 152.985 153.861C151.003 153.308 148.975 154.414 148.376 156.396C145.795 165.477 146.071 173.359 149.252 179.812C151.326 183.961 154.184 186.68 156.442 188.846C159.07 191.336 160.038 192.442 159.991 193.963C159.899 195.484 159.116 196.452 157.641 198.157C148.33 208.068 156.949 216.411 166.03 221.711C155.152 222.311 146.716 221.988 130.952 225.353C121.088 228.118 110.395 229.87 101.545 224.477H91.4961C93.7547 230.193 102.005 233.143 107.076 234.479C115.88 236.968 124.084 234.525 132.566 232.589C144.504 229.962 154.045 229.593 161.052 229.317C169.21 229.04 174.603 228.856 175.571 223.878C177.277 215.996 161.697 213.322 161.144 206.731Z" fill="white"/>
</svg>
