<svg width="250" height="250" viewBox="0 0 250 250" fill="none" xmlns="http://www.w3.org/2000/svg">
<path d="M88.9604 73.8439C88.9604 61.9989 82.6704 52.6589 76.5854 43.6339C72.2504 37.1989 68.1504 31.1239 66.9304 24.8239C66.7342 23.8101 66.1913 22.8963 65.3948 22.2392C64.5983 21.5821 63.5979 21.2227 62.5654 21.2227C61.5328 21.2227 60.5325 21.5821 59.736 22.2392C58.9395 22.8963 58.3966 23.8101 58.2004 24.8239C56.9804 31.1189 52.8854 37.1989 48.5454 43.6339C42.4604 52.6639 36.1704 61.9989 36.1704 73.8439C36.1704 88.9589 48.0104 101.254 62.5654 101.254C77.1204 101.254 88.9604 88.9589 88.9604 73.8439ZM45.0654 73.8439C45.0654 64.7139 50.3404 56.8889 55.9254 48.6039C58.2404 45.1639 60.5954 41.6689 62.5704 38.0289C64.5454 41.6739 66.9004 45.1689 69.2154 48.6039C74.8004 56.8889 80.0754 64.7089 80.0754 73.8439C80.0754 84.0539 72.2254 92.3589 62.5704 92.3589C52.9154 92.3589 45.0654 84.0589 45.0654 73.8439ZM208.995 82.5989C208.995 72.7239 203.595 64.6839 198.825 57.5939C195.36 52.4389 192.085 47.5689 191.125 42.6189C190.93 41.6042 190.388 40.6893 189.591 40.0313C188.795 39.3733 187.794 39.0134 186.76 39.0134C185.727 39.0134 184.726 39.3733 183.93 40.0313C183.133 40.6893 182.591 41.6042 182.395 42.6189C181.435 47.5689 178.16 52.4389 174.695 57.5939C169.93 64.6889 164.525 72.7239 164.525 82.5989C164.525 95.3389 174.5 105.699 186.755 105.699C199.01 105.699 208.995 95.3389 208.995 82.5989ZM173.43 82.5989C173.43 75.4289 177.635 69.1739 182.085 62.5539C183.69 60.1639 185.32 57.7389 186.765 55.2289C188.21 57.7389 189.84 60.1589 191.445 62.5539C195.9 69.1739 200.1 75.4289 200.1 82.5989C200.1 90.4339 194.115 96.8089 186.765 96.8089C179.415 96.8089 173.43 90.4339 173.43 82.5989ZM160.655 127.929C160.655 111.429 151.88 97.6789 143.395 84.3789C137.17 74.6289 131.29 65.4139 129.455 55.9489C129.259 54.9351 128.716 54.0213 127.92 53.3642C127.123 52.7071 126.123 52.3477 125.09 52.3477C124.058 52.3477 123.057 52.7071 122.261 53.3642C121.465 54.0213 120.922 54.9351 120.725 55.9489C118.89 65.4139 112.89 74.6439 106.54 84.4139C97.9054 97.6989 88.9804 111.434 88.9804 127.929C88.9804 148.079 104.84 163.864 125.09 163.864C145.36 163.864 160.655 148.419 160.655 127.929ZM97.8704 127.929C97.8704 114.064 106.065 101.454 113.99 89.2639C117.96 83.1539 122.01 76.9239 125.065 70.4689C128.065 76.8889 132.02 83.0889 135.895 89.1639C143.69 101.384 151.76 114.019 151.76 127.929C151.76 143.344 140.295 154.974 125.085 154.974C109.57 154.974 97.8704 143.344 97.8704 127.929ZM22.2754 176.834H226.78V185.724H22.2754V176.834ZM22.2754 221.289H226.78V230.179H22.2754V221.289ZM35.6104 194.614H48.9454V203.504H35.6104V194.614ZM62.2854 203.509H75.6204V212.399H62.2854V203.509ZM88.9604 194.614H102.295V203.504H88.9604V194.614ZM115.635 203.509H128.97V212.399H115.635V203.509ZM142.31 194.614H155.645V203.504H142.31V194.614ZM168.985 203.509H182.32V212.399H168.985V203.509ZM195.66 194.614H208.995V203.504H195.66V194.614Z" fill="white"/>
</svg>
