<svg width="512" height="512" viewBox="0 0 512 512" fill="none" xmlns="http://www.w3.org/2000/svg">
<g clip-path="url(#clip0_277_2)">
<path fill-rule="evenodd" clip-rule="evenodd" d="M158.338 461.301L36.8 499.979L0 511.691L51.698 358.993C43.022 343.045 36.15 326.153 31.256 308.657C25.316 287.429 22.32 265.491 22.32 243.447C22.32 178.587 48.124 117.097 94.13 71.4605C140.284 25.6805 202.234 0.3125 267.232 0.3125C332.206 0.3125 394.124 25.7105 440.24 71.4985C486.226 117.161 512 178.667 512 243.525C512 308.377 486.198 369.861 440.206 415.491C394.07 461.267 332.138 486.643 267.158 486.643C246.544 486.643 226.004 484.099 206.03 478.989C189.556 474.775 173.57 468.837 158.338 461.301Z" fill="#EEEEEE"/>
<path fill-rule="evenodd" clip-rule="evenodd" d="M492.472 243.524C492.472 181.764 467.254 125.838 426.482 85.3559C385.714 44.8739 329.41 19.8379 267.232 19.8379C205 19.8379 148.666 44.8639 107.882 85.3239C67.0759 125.8 41.8459 181.712 41.8459 243.446C41.8459 264.17 44.7119 284.282 50.0599 303.394C55.3739 322.384 63.1479 340.362 73.0019 356.96L33.9659 472.258L30.8799 481.372L40.0479 478.454L160.112 440.246C176.006 448.8 193.014 455.504 210.87 460.072C228.858 464.674 247.712 467.116 267.158 467.116C329.362 467.116 385.678 442.086 426.454 401.632C467.246 361.158 492.472 305.248 492.472 243.524Z" fill="#54CC61"/>
<path fill-rule="evenodd" clip-rule="evenodd" d="M230.59 182.464C229.602 180.474 223.894 166.682 218.63 153.974C215.266 145.848 212.058 138.1 211.428 136.6C205.504 122.472 198.954 122.898 193.928 123.224C193.598 123.244 193.282 123.266 192.856 123.266C191.104 123.266 189.38 123.158 187.596 123.044C185.364 122.902 183.046 122.756 180.856 122.756C177.944 122.756 173.98 123.36 169.804 125.314C166.706 126.762 163.514 128.944 160.588 132.158C160.164 132.618 159.842 132.956 159.492 133.322C152.536 140.634 137.374 156.572 137.374 187.186C137.374 219.298 160.53 249.834 163.932 254.32L163.92 254.328L163.95 254.37L163.99 254.408C164.122 254.58 164.614 255.298 165.342 256.362C173.892 268.868 213.206 326.366 272.972 349.71C327.192 370.866 337.002 368.492 345.766 366.372C347.258 366.012 348.714 365.658 350.29 365.514C357.388 364.846 368.996 359.988 378.766 353.166C386.87 347.506 393.944 340.354 396.652 332.822C399.068 326.09 400.436 319.836 401.07 314.686C401.99 307.208 401.26 301.322 399.9 299.048L399.882 299.03C397.812 295.62 394.234 293.932 388.864 291.398C387.916 290.95 386.906 290.472 385.932 290.002L385.936 289.996C382.234 288.112 369.426 281.85 358.478 276.676C351.404 273.332 345.118 270.458 342.628 269.564C339.128 268.306 336.076 267.354 332.804 267.726C329.098 268.144 325.862 270.052 322.864 274.594L322.854 274.59C321.348 276.85 318.694 280.242 315.794 283.796C311.202 289.422 305.724 295.738 303.388 298.392V298.41C302.392 299.544 301.532 300.164 300.69 300.264C299.518 300.406 297.91 299.926 295.684 298.834C294.26 298.122 292.874 297.522 291.162 296.782C282.504 293.048 265.64 285.772 246.422 268.756C239.548 262.67 233.498 256.018 228.446 249.778C220.264 239.676 214.74 230.676 212.542 226.886C210.808 223.914 212.736 221.986 214.512 220.208L214.506 220.198C216.472 218.232 218.696 215.558 220.93 212.876C221.946 211.652 222.964 210.428 224.202 209.004L224.222 208.984C227.234 205.482 228.48 202.93 230.168 199.488C230.46 198.892 230.768 198.262 231.076 197.646L231.096 197.628C232.576 194.64 232.956 191.8 232.68 189.138C232.422 186.66 231.594 184.448 230.582 182.47L230.59 182.464Z" fill="#FFFFFE"/>
</g>
<defs>
<clipPath id="clip0_277_2">
<rect width="512" height="512" fill="white"/>
</clipPath>
</defs>
</svg>
